<?xml version="1.0" encoding="utf-8"?>
<!-- Generator: Adobe Illustrator 16.0.0, SVG Export Plug-In . SVG Version: 6.00 Build 0)  -->
<!DOCTYPE svg PUBLIC "-//W3C//DTD SVG 1.1//EN" "http://www.w3.org/Graphics/SVG/1.1/DTD/svg11.dtd">
<svg version="1.1" id="Capa_1" xmlns="http://www.w3.org/2000/svg" xmlns:xlink="http://www.w3.org/1999/xlink" x="0px" y="0px"
	 width="205px" height="136px" viewBox="397.5 232 205 136" enable-background="new 397.5 232 205 136" xml:space="preserve">
<rect x="397.5" y="232" fill="#0067C6" width="205" height="136"/>
<rect x="397.5" y="277.333" fill="#FFFFFF" width="205" height="45.333"/>
<g id="text">
	<path fill="#C8A400" d="M481.55,299.848c0.682,0.05,1.364,0.101,2.046,0.151c0.007-0.11,0.013-0.22,0.02-0.331
		c-0.268-0.02-0.537-0.04-0.805-0.059c0.021-0.363,0.048-0.727,0.062-1.09c0.285-0.228,0.57-0.455,0.854-0.684
		c0.008-0.139,0.017-0.279,0.025-0.418c-0.3,0.24-0.6,0.481-0.9,0.722c-0.03-0.235-0.148-0.478-0.361-0.559
		c-0.188-0.075-0.417-0.088-0.579,0.06c-0.206,0.167-0.243,0.466-0.27,0.727C481.607,298.859,481.582,299.354,481.55,299.848
		L481.55,299.848z M481.862,299.539c0.024-0.371,0.04-0.743,0.072-1.114c0.025-0.183,0.056-0.395,0.201-0.511
		c0.131-0.096,0.325-0.025,0.378,0.139c0.107,0.283,0.059,0.595,0.046,0.891c-0.013,0.215-0.026,0.429-0.039,0.644
		C482.301,299.572,482.081,299.556,481.862,299.539L481.862,299.539z"/>
	<path fill="#C8A400" d="M481.817,296.375c0.666,0.172,1.331,0.344,1.996,0.516c0.151-0.716,0.302-1.432,0.454-2.148
		c-0.095-0.024-0.189-0.049-0.284-0.073c-0.128,0.609-0.257,1.218-0.386,1.828c-0.203-0.052-0.405-0.104-0.608-0.157
		c0.116-0.549,0.232-1.098,0.348-1.647c-0.094-0.024-0.188-0.049-0.282-0.073c-0.116,0.549-0.232,1.098-0.348,1.647
		c-0.179-0.046-0.358-0.092-0.538-0.139c0.124-0.586,0.248-1.173,0.372-1.759c-0.095-0.025-0.19-0.049-0.285-0.074
		C482.109,294.988,481.963,295.681,481.817,296.375L481.817,296.375z"/>
	<path fill="#C8A400" d="M482.535,293.411c0.646,0.248,1.291,0.496,1.937,0.745c0.033-0.104,0.065-0.208,0.098-0.313
		c-0.254-0.098-0.507-0.195-0.761-0.293c0.099-0.324,0.208-0.644,0.299-0.971c0.065-0.267,0.116-0.579-0.026-0.827
		c-0.115-0.183-0.32-0.301-0.522-0.294c-0.223,0.011-0.405,0.192-0.504,0.402c-0.146,0.304-0.228,0.639-0.335,0.961
		C482.659,293.018,482.597,293.214,482.535,293.411z M482.91,293.204c0.104-0.321,0.197-0.647,0.31-0.964
		c0.069-0.17,0.155-0.371,0.331-0.425c0.146-0.037,0.298,0.087,0.311,0.251c0.035,0.303-0.084,0.588-0.168,0.87
		c-0.053,0.169-0.106,0.338-0.16,0.508C483.325,293.364,483.117,293.284,482.91,293.204L482.91,293.204z"/>
	<path fill="#C8A400" d="M483.605,290.669c0.365,0.234,0.727,0.474,1.094,0.704c0.207,0.123,0.47,0.193,0.686,0.056
		c0.295-0.181,0.48-0.515,0.625-0.84c0.114-0.274,0.197-0.615,0.051-0.896c-0.157-0.28-0.442-0.409-0.685-0.576
		c-0.236-0.153-0.473-0.306-0.709-0.458c-0.05,0.095-0.1,0.19-0.15,0.285c0.347,0.226,0.697,0.448,1.043,0.677
		c0.165,0.111,0.302,0.313,0.273,0.537c-0.032,0.267-0.17,0.501-0.308,0.717c-0.113,0.175-0.304,0.316-0.506,0.269
		c-0.211-0.044-0.383-0.197-0.568-0.308c-0.232-0.15-0.464-0.3-0.697-0.451C483.705,290.479,483.655,290.574,483.605,290.669z"/>
	<path fill="#C8A400" d="M485.082,288c0.542,0.459,1.085,0.918,1.628,1.377c0.252-0.365,0.504-0.73,0.759-1.093
		c0.146-0.231,0.28-0.533,0.182-0.817c-0.09-0.226-0.301-0.401-0.526-0.413c-0.102-0.016-0.235,0.07-0.29,0.107
		c0.058-0.242-0.121-0.469-0.322-0.533c-0.242-0.095-0.488,0.077-0.648,0.267c-0.188,0.227-0.346,0.482-0.519,0.724
		C485.257,287.748,485.169,287.874,485.082,288z M485.495,287.933c0.19-0.27,0.371-0.549,0.57-0.811
		c0.093-0.114,0.242-0.244,0.386-0.16c0.131,0.063,0.164,0.246,0.101,0.377c-0.099,0.236-0.264,0.427-0.4,0.636
		c-0.075,0.108-0.149,0.216-0.224,0.323C485.783,288.177,485.639,288.055,485.495,287.933z M486.158,288.495
		c0.198-0.28,0.384-0.57,0.593-0.839c0.106-0.124,0.24-0.279,0.409-0.243c0.145,0.037,0.249,0.21,0.199,0.371
		c-0.081,0.297-0.282,0.524-0.443,0.77c-0.085,0.123-0.169,0.245-0.254,0.368C486.493,288.778,486.326,288.636,486.158,288.495z"/>
	<path fill="#C8A400" d="M486.927,285.597l1.408,1.647l1.206-1.26l-0.2-0.234l-0.964,1.008l-0.025,0.026l-0.018-0.021l-1.19-1.393
		L486.927,285.597z"/>
	<path fill="#C8A400" d="M488.732,283.851l1.25,1.797l0.244-0.208l-1.25-1.797L488.732,283.851z"/>
	<path fill="#C8A400" d="M490.568,282.472c-0.202,0.14-0.366,0.303-0.491,0.493c-0.125,0.19-0.193,0.388-0.203,0.595
		c-0.009,0.207,0.04,0.407,0.15,0.602c0.101,0.179,0.236,0.318,0.405,0.418c0.168,0.1,0.35,0.136,0.549,0.112
		c0.198-0.024,0.421-0.122,0.67-0.293c0.239-0.165,0.408-0.354,0.512-0.572c0.1-0.209,0.128-0.431,0.085-0.668l-0.284,0.123
		c0.075,0.453-0.189,0.67-0.485,0.878c-0.463,0.311-0.915,0.289-1.191-0.179c-0.287-0.528,0.027-0.963,0.421-1.247
		c0.279-0.193,0.555-0.325,0.817-0.14l0.222-0.219c-0.153-0.117-0.326-0.17-0.524-0.159
		C491.015,282.229,490.798,282.313,490.568,282.472L490.568,282.472z"/>
	<path fill="#C8A400" d="M492.991,281.135l-0.215,2.54l0.319-0.143l0.064-0.788l0.001,0l1.037-0.462l0.541,0.518l0.319-0.143
		l-1.748-1.665L492.991,281.135L492.991,281.135z M493.271,281.396l0.682,0.652l-0.763,0.34L493.271,281.396z"/>
	<path fill="#C8A400" d="M497.484,279.734c0.042,0.754,0.085,1.508,0.128,2.262c0.37-0.027,0.74-0.047,1.11-0.081
		c0.291-0.037,0.602-0.12,0.801-0.376c0.256-0.315,0.292-0.785,0.18-1.176c-0.094-0.345-0.375-0.605-0.692-0.671
		c-0.313-0.066-0.631-0.014-0.946,0.002C497.872,279.707,497.678,279.721,497.484,279.734L497.484,279.734z M497.8,280.035
		c0.294-0.017,0.588-0.049,0.883-0.051c0.167-0.005,0.334,0.049,0.469,0.159c0.205,0.155,0.326,0.434,0.299,0.708
		c-0.015,0.315-0.225,0.605-0.501,0.685c-0.158,0.045-0.323,0.058-0.485,0.078c-0.191,0.013-0.382,0.026-0.573,0.04
		C497.861,281.114,497.83,280.574,497.8,280.035L497.8,280.035z"/>
	<path fill="#C8A400" d="M500.341,279.6c-0.039,0.754-0.078,1.508-0.117,2.263c0.664,0.042,1.328,0.084,1.992,0.126
		c0.006-0.107,0.012-0.214,0.017-0.321c-0.564-0.036-1.129-0.072-1.694-0.107c0.012-0.23,0.023-0.459,0.035-0.689
		c0.51,0.032,1.019,0.064,1.527,0.096c0.006-0.106,0.011-0.213,0.017-0.32c-0.509-0.032-1.018-0.064-1.527-0.096
		c0.011-0.203,0.021-0.407,0.032-0.61c0.543,0.034,1.087,0.069,1.631,0.103c0.005-0.107,0.011-0.215,0.017-0.323
		C501.627,279.681,500.984,279.641,500.341,279.6z"/>
	<path fill="#C8A400" d="M505.694,280.544l-0.741,2.113l0.264,0.113l0.588-1.675l0.03-0.087l0.033,0.097l0.707,2.248l0.345,0.148
		l0.741-2.113l-0.264-0.113l-0.588,1.675l-0.03,0.085l-0.032-0.096l-0.708-2.247L505.694,280.544z"/>
	<path fill="#C8A400" d="M508.448,281.853l-0.932,2.019l-0.274-0.155l0.933-2.019L508.448,281.853z"/>
	<path fill="#C8A400" d="M509.994,282.854c-0.199-0.146-0.401-0.241-0.61-0.288s-0.399-0.032-0.573,0.044
		c-0.174,0.076-0.317,0.209-0.433,0.402c-0.105,0.176-0.163,0.371-0.175,0.582c-0.012,0.21,0.034,0.408,0.138,0.598
		c0.103,0.188,0.275,0.373,0.52,0.551c0.235,0.171,0.462,0.262,0.685,0.276c0.214,0.014,0.408-0.051,0.585-0.193l-0.22-0.233
		c-0.341,0.264-0.63,0.089-0.925-0.122c-0.449-0.335-0.618-0.798-0.35-1.271c0.314-0.508,0.804-0.375,1.2-0.098
		c0.275,0.201,0.499,0.422,0.456,0.763l0.272,0.132c0.032-0.203,0.004-0.399-0.088-0.593
		C510.38,283.201,510.22,283.019,509.994,282.854L509.994,282.854z"/>
	<path fill="#C8A400" d="M511.946,284.482l-2.143,0.945l0.26,0.25l0.663-0.295l0.002,0.001l0.844,0.81l-0.171,0.768l0.26,0.25
		l0.545-2.479L511.946,284.482L511.946,284.482z M511.865,284.876l-0.216,0.968l-0.621-0.597L511.865,284.876L511.865,284.876z"/>
	<path fill="#C8A400" d="M513.494,286.057c-0.527,0.481-1.055,0.962-1.582,1.442c0.063,0.085,0.127,0.17,0.19,0.255
		c0.207-0.189,0.415-0.378,0.622-0.567c0.211,0.279,0.416,0.564,0.632,0.84c-0.066,0.382-0.132,0.763-0.196,1.145
		c0.08,0.108,0.161,0.216,0.241,0.324c0.069-0.402,0.138-0.805,0.206-1.208c0.178,0.161,0.437,0.241,0.648,0.114
		c0.182-0.095,0.342-0.278,0.352-0.511c0.022-0.313-0.18-0.566-0.341-0.798C514.009,286.748,513.751,286.402,513.494,286.057
		L513.494,286.057z M513.459,286.518c0.222,0.303,0.454,0.596,0.666,0.907c0.097,0.16,0.219,0.385,0.106,0.573
		c-0.092,0.16-0.294,0.146-0.418,0.042c-0.251-0.187-0.417-0.473-0.612-0.722c-0.084-0.112-0.167-0.224-0.251-0.336
		C513.12,286.827,513.29,286.672,513.459,286.518z"/>
	<path fill="#C8A400" d="M515.893,289.664l-2.305,0.117l0.171,0.33l0.715-0.039v0.001l0.558,1.072l-0.389,0.664l0.172,0.33
		l1.249-2.145L515.893,289.664L515.893,289.664z M515.698,290.007l-0.489,0.837l-0.41-0.789L515.698,290.007z"/>
	<path fill="#C8A400" d="M517.207,292.665c-0.128-0.384-0.33-0.778-0.672-0.971c-0.381-0.211-0.888-0.108-1.157,0.262
		c-0.235,0.308-0.247,0.744-0.185,1.122c0.074,0.435,0.255,0.849,0.525,1.175c-0.051,0.021-0.102,0.041-0.153,0.061
		c0.033,0.101,0.065,0.201,0.099,0.302c0.32-0.127,0.64-0.254,0.96-0.382c-0.124-0.382-0.249-0.764-0.373-1.146
		c-0.074,0.03-0.148,0.059-0.222,0.088c0.091,0.282,0.183,0.563,0.274,0.845c-0.108,0.043-0.217,0.086-0.325,0.129
		c-0.287-0.272-0.447-0.675-0.53-1.076c-0.062-0.301-0.064-0.661,0.142-0.897c0.237-0.272,0.656-0.357,0.94-0.125
		c0.28,0.227,0.438,0.594,0.519,0.959c0.055,0.24,0.046,0.525-0.119,0.713c-0.046,0.039,0.027,0.092,0.039,0.138
		c0.026,0.047,0.053,0.095,0.079,0.143c0.174-0.151,0.278-0.389,0.275-0.634C517.329,293.13,517.281,292.891,517.207,292.665z"/>
	<path fill="#C8A400" d="M517.796,294.435l-1.146,0.247c-0.213,0.046-0.372,0.12-0.479,0.22c-0.106,0.099-0.174,0.238-0.207,0.424
		c-0.032,0.184-0.027,0.409,0.021,0.683c0,0.002,0.001,0.004,0.001,0.006c0.049,0.273,0.12,0.484,0.213,0.641
		c0.093,0.159,0.203,0.26,0.336,0.308c0.132,0.048,0.305,0.051,0.518,0.005l1.146-0.247l-0.057-0.323l-1.119,0.241
		c-0.502,0.108-0.671-0.185-0.758-0.685c0-0.002,0-0.004-0.001-0.006c-0.09-0.5-0.031-0.84,0.471-0.949l1.118-0.241L517.796,294.435
		L517.796,294.435z"/>
	<path fill="#C8A400" d="M518.425,298.292l-2.121-1.003l0.025,0.379l0.658,0.309v0.001l0.08,1.233l-0.61,0.411l0.024,0.379
		l1.969-1.331L518.425,298.292L518.425,298.292z M518.115,298.508l-0.771,0.518l-0.06-0.908L518.115,298.508z"/>
	<polygon fill="#C8A400" points="483.139,304.156 482.842,304.242 483.171,305.623 483.468,305.537 	"/>
	<polygon fill="#C8A400" points="516.868,304.156 517.165,304.242 516.836,305.623 516.539,305.537 	"/>
	<path fill="#C8A400" d="M486.31,309.971l-2.292,0.292l0.191,0.315l0.71-0.092l0,0.001l0.623,1.026l-0.347,0.691l0.192,0.316
		l1.113-2.234L486.31,309.971L486.31,309.971z M486.137,310.328L485.7,311.2l-0.458-0.756L486.137,310.328L486.137,310.328z"/>
	<path fill="#C8A400" d="M487.187,311.355l-1.461,1.511l0.195,0.23l1.231-1.272l-0.646,1.965l0.224,0.265l1.765-0.593l-1.209,1.25
		l0.195,0.23l1.461-1.51l-0.296-0.351l-1.794,0.593l0.671-1.92L487.187,311.355z"/>
	<path fill="#C8A400" d="M489.315,313.756c-0.411,0.604-0.822,1.207-1.233,1.812c0.532,0.441,1.063,0.884,1.594,1.326
		c0.059-0.085,0.117-0.171,0.176-0.257c-0.452-0.376-0.904-0.753-1.356-1.129c0.125-0.184,0.25-0.367,0.375-0.552
		c0.407,0.34,0.815,0.679,1.222,1.018c0.058-0.085,0.116-0.17,0.174-0.256c-0.407-0.339-0.814-0.678-1.222-1.018
		c0.11-0.162,0.221-0.324,0.332-0.487c0.435,0.362,0.87,0.725,1.305,1.087c0.059-0.087,0.117-0.173,0.176-0.259
		C490.344,314.612,489.829,314.185,489.315,313.756L489.315,313.756z"/>
	<path fill="#C8A400" d="M491.321,315.379c-0.321,0.667-0.644,1.334-0.965,2c0.088,0.053,0.176,0.104,0.264,0.156
		c0.126-0.263,0.253-0.524,0.38-0.786c0.292,0.169,0.579,0.347,0.873,0.511c0.071,0.38,0.141,0.761,0.213,1.141
		c0.111,0.065,0.223,0.132,0.335,0.198c-0.076-0.401-0.15-0.803-0.226-1.204c0.219,0.074,0.486,0.039,0.638-0.168
		c0.129-0.159,0.217-0.384,0.155-0.598c-0.072-0.296-0.335-0.45-0.557-0.594C492.061,315.815,491.691,315.599,491.321,315.379
		L491.321,315.379z M491.448,315.82c0.309,0.187,0.625,0.359,0.928,0.558c0.14,0.104,0.318,0.248,0.3,0.459
		c-0.016,0.186-0.196,0.285-0.349,0.245c-0.299-0.055-0.551-0.252-0.818-0.399c-0.124-0.072-0.248-0.146-0.372-0.219
		C491.24,316.249,491.344,316.035,491.448,315.82L491.448,315.82z"/>
	<path fill="#C8A400" d="M493.636,316.718l-0.775,2.099l0.285,0.129l0.775-2.099L493.636,316.718z"/>
	<path fill="#C8A400" d="M495.485,317.424c-0.227-0.083-0.444-0.117-0.657-0.103c-0.212,0.015-0.393,0.083-0.543,0.207
		c-0.15,0.124-0.257,0.294-0.323,0.513c-0.06,0.2-0.07,0.404-0.032,0.611c0.038,0.207,0.128,0.385,0.272,0.538
		c0.144,0.152,0.354,0.281,0.632,0.383c0.267,0.099,0.507,0.121,0.726,0.07c0.209-0.048,0.382-0.166,0.52-0.354l-0.267-0.163
		c-0.268,0.353-0.588,0.267-0.922,0.148c-0.512-0.195-0.785-0.594-0.636-1.128c0.184-0.581,0.688-0.593,1.136-0.438
		c0.313,0.114,0.581,0.265,0.62,0.605l0.293,0.05c-0.016-0.205-0.09-0.387-0.224-0.547
		C495.939,317.648,495.742,317.519,495.485,317.424L495.485,317.424z"/>
	<path fill="#C8A400" d="M497.546,317.935l-1.341,2.076l0.341,0.054l0.414-0.645h0.001l1.106,0.178l0.231,0.748l0.341,0.055
		l-0.753-2.411L497.546,317.935L497.546,317.935z M497.67,318.315l0.292,0.942l-0.814-0.13L497.67,318.315z"/>
	<path fill="#C8A400" d="M502.352,317.95c-0.234,0.051-0.439,0.138-0.619,0.266c-0.179,0.128-0.306,0.286-0.382,0.475
		c-0.076,0.189-0.094,0.396-0.055,0.622c0.036,0.207,0.117,0.391,0.243,0.551c0.124,0.159,0.282,0.266,0.476,0.321
		c0.192,0.056,0.433,0.054,0.721-0.008c0.276-0.059,0.495-0.169,0.664-0.331c0.161-0.156,0.259-0.352,0.296-0.59l-0.305,0.002
		c-0.077,0.453-0.395,0.552-0.738,0.628c-0.533,0.107-0.947-0.092-1.054-0.639c-0.097-0.606,0.337-0.889,0.797-0.997
		c0.323-0.069,0.623-0.084,0.809,0.192l0.278-0.116c-0.105-0.169-0.25-0.288-0.438-0.355
		C502.847,317.9,502.617,317.894,502.352,317.95L502.352,317.95z"/>
	<path fill="#C8A400" d="M503.721,317.683c0.194,0.724,0.389,1.448,0.583,2.173c0.638-0.209,1.275-0.418,1.912-0.628
		c-0.027-0.103-0.055-0.206-0.082-0.309c-0.543,0.178-1.085,0.355-1.628,0.534c-0.059-0.221-0.118-0.441-0.177-0.662
		c0.488-0.16,0.978-0.32,1.466-0.48c-0.027-0.103-0.055-0.205-0.082-0.308c-0.489,0.16-0.978,0.32-1.467,0.481
		c-0.052-0.195-0.104-0.391-0.157-0.586c0.522-0.171,1.044-0.342,1.566-0.514c-0.027-0.104-0.056-0.207-0.083-0.31
		C504.955,317.277,504.338,317.479,503.721,317.683L503.721,317.683z"/>
	<path fill="#C8A400" d="M505.939,316.911c0.286,0.687,0.573,1.372,0.86,2.058c0.085-0.044,0.171-0.088,0.257-0.131
		c-0.24-0.572-0.479-1.145-0.719-1.716c0.664,0.333,1.324,0.675,1.985,1.012c0.045,0.042,0.089,0.014,0.133-0.012
		c0.086-0.045,0.172-0.089,0.258-0.133c-0.286-0.686-0.573-1.371-0.86-2.057c-0.086,0.044-0.172,0.088-0.257,0.131
		c0.238,0.571,0.478,1.143,0.717,1.714c-0.682-0.341-1.359-0.692-2.039-1.037C506.161,316.797,506.05,316.854,505.939,316.911z"/>
	<path fill="#C8A400" d="M508.19,315.742l0.16,0.271l0.732-0.533l0.027-0.021l0.014,0.023l0.953,1.601l0.249-0.182l-0.953-1.6
		l-0.014-0.023l0.028-0.021l0.736-0.536l-0.161-0.27L508.19,315.742z"/>
	<path fill="#C8A400" d="M510.252,314.181c0.463,0.556,0.926,1.111,1.39,1.667c0.073-0.074,0.146-0.149,0.22-0.224
		c-0.182-0.219-0.364-0.438-0.547-0.656c0.241-0.248,0.487-0.49,0.725-0.743c0.348,0.052,0.696,0.104,1.045,0.153
		c0.093-0.095,0.186-0.189,0.278-0.284c-0.367-0.054-0.734-0.107-1.102-0.161c0.135-0.204,0.193-0.495,0.067-0.722
		c-0.097-0.195-0.271-0.362-0.481-0.36c-0.283-0.007-0.501,0.229-0.702,0.42C510.848,313.574,510.55,313.878,510.252,314.181
		L510.252,314.181z M510.67,314.194c0.261-0.262,0.513-0.534,0.782-0.785c0.14-0.116,0.336-0.263,0.512-0.149
		c0.149,0.093,0.147,0.316,0.061,0.459c-0.155,0.288-0.404,0.487-0.618,0.717c-0.097,0.099-0.193,0.196-0.289,0.295
		C510.968,314.552,510.819,314.373,510.67,314.194L510.67,314.194z"/>
	<path fill="#C8A400" d="M512.637,311.541l0.917,2.341l0.218-0.294l-0.286-0.725l0.001-0.002l0.708-0.956l0.699,0.166l0.218-0.295
		l-2.257-0.529L512.637,311.541L512.637,311.541z M512.996,311.62l0.881,0.21l-0.521,0.704L512.996,311.62z"/>
	<path fill="#C8A400" d="M513.53,310.258l1.72,1.232l0.903-1.539l-0.244-0.175l-0.723,1.231l-0.019,0.031l-0.021-0.016l-1.454-1.043
		L513.53,310.258z"/>
</g>
<g>
	<defs>
		<polygon id="SVGID_1_" points="500,283.312 486.941,308.32 513.059,308.32 		"/>
	</defs>
	<clipPath id="SVGID_2_">
		<use xlink:href="#SVGID_1_"  overflow="visible"/>
	</clipPath>
	<g clip-path="url(#SVGID_2_)">
		<g>
			<path fill="#FFFFFF" d="M500,283.319l-6.453,12.361l-3.161,6.052h19.229l-3.017-5.776L500,283.319L500,283.319z"/>
			<g id="rays5">
				<g id="ray">
					<path opacity="0.6204" fill="#17C0EB" stroke="#17C0EB" stroke-width="0.1287" enable-background="new    " d="M500,283.319
						l-0.483,0.925L500,296.706l0.483-12.462L500,283.319z"/>
					<path fill="#FFFFFF" d="M500,294.895c-0.009,0-0.018,0-0.027,0L500,295.6l0.027-0.705
						C500.019,294.895,500.01,294.895,500,294.895z"/>
				</g>
				<g transform="rotate(72,500.001,285.46654)">
					<g id="ray_1_">
						<path opacity="0.6204" fill="#17C0EB" stroke="#17C0EB" stroke-width="0.1287" enable-background="new    " d="
							M511.515,292.569l-0.945-0.222L500,296.706l10.868-3.343L511.515,292.569z"/>
						<path fill="#FFFFFF" d="M501.559,296.146c-0.003-0.009-0.007-0.019-0.01-0.028l-0.598,0.247l0.615-0.189
							C501.564,296.166,501.561,296.155,501.559,296.146z"/>
					</g>
				</g>
				<g transform="rotate(144,500.001,285.46654)">
					<g id="ray_2_">
						<path opacity="0.6204" fill="#17C0EB" stroke="#17C0EB" stroke-width="0.1287" enable-background="new    " d="
							M507.116,307.536l-0.101-1.063L500,296.706l6.233,10.396L507.116,307.536z"/>
						<path fill="#FFFFFF" d="M500.963,298.171c0.008-0.006,0.015-0.012,0.021-0.019l-0.396-0.553l0.353,0.588
							C500.948,298.183,500.956,298.177,500.963,298.171z"/>
					</g>
				</g>
				<g transform="rotate(216,500.001,285.46654)">
					<g id="ray_3_">
						<path opacity="0.6204" fill="#17C0EB" stroke="#17C0EB" stroke-width="0.1287" enable-background="new    " d="
							M492.884,307.536l0.883-0.435L500,296.706l-7.015,9.768L492.884,307.536z"/>
						<path fill="#FFFFFF" d="M499.037,298.171c0.007,0.006,0.015,0.011,0.022,0.017l0.353-0.588l-0.397,0.553
							C499.023,298.159,499.03,298.166,499.037,298.171z"/>
					</g>
				</g>
				<g transform="rotate(288,500.001,285.46654)">
					<g id="ray_4_">
						<path opacity="0.6204" fill="#17C0EB" stroke="#17C0EB" stroke-width="0.1287" enable-background="new    " d="
							M488.486,292.569l0.647,0.794L500,296.706l-10.569-4.359L488.486,292.569z"/>
						<path fill="#FFFFFF" d="M498.442,296.146c-0.002,0.009-0.005,0.02-0.008,0.029l0.615,0.189l-0.598-0.247
							C498.448,296.127,498.445,296.137,498.442,296.146z"/>
					</g>
				</g>
			</g>
			<g>
				<g id="rays5_1_">
					<g id="ray_5_">
						<path opacity="0.6204" fill="#17C0EB" stroke="#17C0EB" stroke-width="0.1287" enable-background="new    " d="
							M501.685,283.449l-0.595,0.842L500,296.706l2.047-12.266L501.685,283.449z"/>
						<path fill="#FFFFFF" d="M500.228,294.912c-0.009-0.001-0.018-0.002-0.027-0.004l-0.062,0.703l0.116-0.694
							C500.246,294.915,500.237,294.914,500.228,294.912z"/>
					</g>
					<g transform="rotate(72,500.001,285.46654)">
						<g id="ray_6_">
							<path opacity="0.6204" fill="#17C0EB" stroke="#17C0EB" stroke-width="0.1287" enable-background="new    " d="
								M511.923,294.381l-0.907-0.366L500,296.706l11.184-1.638L511.923,294.381z"/>
							<path fill="#FFFFFF" d="M501.614,296.391c-0.001-0.01-0.003-0.02-0.005-0.03l-0.624,0.152l0.633-0.093
								C501.616,296.411,501.615,296.401,501.614,296.391z"/>
						</g>
					</g>
					<g transform="rotate(144,500.001,285.46654)">
						<g id="ray_7_">
							<path opacity="0.6204" fill="#17C0EB" stroke="#17C0EB" stroke-width="0.1287" enable-background="new    " d="
								M505.684,308.525l0.034-1.067L500,296.706l4.864,11.253L505.684,308.525z"/>
							<path fill="#FFFFFF" d="M500.77,298.305c0.008-0.005,0.016-0.01,0.023-0.015l-0.324-0.608l0.276,0.637
								C500.753,298.314,500.761,298.31,500.77,298.305z"/>
						</g>
					</g>
					<g transform="rotate(216,500.001,285.46654)">
						<g id="ray_8_">
							<path opacity="0.6204" fill="#17C0EB" stroke="#17C0EB" stroke-width="0.1287" enable-background="new    " d="
								M491.59,306.335l0.929-0.294l7.481-9.335l-8.176,8.593L491.59,306.335z"/>
							<path fill="#FFFFFF" d="M498.863,298.009c0.006,0.007,0.013,0.014,0.02,0.021l0.423-0.528l-0.463,0.486
								C498.849,297.995,498.856,298.002,498.863,298.009z"/>
						</g>
					</g>
					<g transform="rotate(8,500.001,285.46654)">
						<g id="ray_9_">
							<path opacity="0.6204" fill="#17C0EB" stroke="#17C0EB" stroke-width="0.1287" enable-background="new    " d="
								M489.118,290.837l0.541,0.886L500,296.706l-9.917-5.943L489.118,290.837z"/>
							<path fill="#FFFFFF" d="M498.528,295.912c-0.003,0.009-0.007,0.019-0.011,0.027l0.585,0.282l-0.562-0.336
								C498.536,295.894,498.532,295.903,498.528,295.912z"/>
						</g>
					</g>
				</g>
				<g>
					<g id="rays5_2_">
						<g id="ray_10_">
							<path opacity="0.6204" fill="#17C0EB" stroke="#17C0EB" stroke-width="0.1287" enable-background="new    " d="
								M503.337,283.838l-0.694,0.742L500,296.706l3.571-11.832L503.337,283.838z"/>
							<path fill="#FFFFFF" d="M500.452,294.964c-0.009-0.002-0.018-0.005-0.026-0.008l-0.149,0.687l0.202-0.669
								C500.469,294.971,500.461,294.967,500.452,294.964z"/>
						</g>
						<g transform="rotate(72,500.001,285.46654)">
							<g id="ray_11_">
								<path opacity="0.6204" fill="#17C0EB" stroke="#17C0EB" stroke-width="0.1287" enable-background="new    " d="
									M512.1,296.238l-0.854-0.501L500,296.706l11.28,0.099L512.1,296.238z"/>
								<path fill="#FFFFFF" d="M501.638,296.643c-0.001-0.01-0.001-0.02-0.002-0.03l-0.637,0.055l0.639,0.006
									C501.638,296.663,501.638,296.652,501.638,296.643z"/>
							</g>
						</g>
						<g transform="rotate(144,500.001,285.46654)">
							<g id="ray_12_">
								<path opacity="0.6204" fill="#17C0EB" stroke="#17C0EB" stroke-width="0.1287" enable-background="new    " d="
									M504.141,309.285l0.168-1.052L500,296.706l3.401,11.893L504.141,309.285z"/>
								<path fill="#FFFFFF" d="M500.561,298.408c0.009-0.003,0.017-0.007,0.025-0.011l-0.244-0.652l0.192,0.673
									C500.543,298.415,500.552,298.411,500.561,298.408z"/>
							</g>
						</g>
						<g transform="rotate(216,500.001,285.46654)">
							<g id="ray_13_">
								<path opacity="0.6204" fill="#17C0EB" stroke="#17C0EB" stroke-width="0.1287" enable-background="new    " d="
									M490.46,304.947l0.957-0.148l8.583-8.093l-9.178,7.251L490.46,304.947z"/>
								<path fill="#FFFFFF" d="M498.709,297.821c0.006,0.008,0.012,0.016,0.018,0.023l0.486-0.458l-0.52,0.411
									C498.698,297.805,498.704,297.813,498.709,297.821z"/>
							</g>
						</g>
						<g transform="rotate(16,500.001,285.46654)">
							<g id="ray_14_">
								<path opacity="0.6204" fill="#17C0EB" stroke="#17C0EB" stroke-width="0.1287" enable-background="new    " d="
									M489.963,289.22l0.423,0.96l9.614,6.526l-9.073-7.412L489.963,289.22z"/>
								<path fill="#FFFFFF" d="M498.642,295.693c-0.005,0.008-0.01,0.017-0.015,0.025l0.544,0.369l-0.514-0.419
									C498.653,295.676,498.647,295.685,498.642,295.693z"/>
							</g>
						</g>
					</g>
					<g>
						<g id="rays5_3_">
							<g id="ray_15_">
								<path opacity="0.6204" fill="#17C0EB" stroke="#17C0EB" stroke-width="0.1287" enable-background="new    " d="
									M504.925,284.477l-0.782,0.628L500,296.706l5.025-11.167L504.925,284.477z"/>
								<path fill="#FFFFFF" d="M500.666,295.051c-0.008-0.004-0.017-0.008-0.024-0.012l-0.235,0.657l0.285-0.632
									C500.683,295.06,500.675,295.055,500.666,295.051z"/>
							</g>
							<g transform="rotate(72,500.001,285.46654)">
								<g id="ray_16_">
									<path opacity="0.6204" fill="#17C0EB" stroke="#17C0EB" stroke-width="0.1287" enable-background="new    " d="
										M512.041,298.105l-0.782-0.628L500,296.706l11.158,1.833L512.041,298.105z"/>
									<path fill="#FFFFFF" d="M501.629,296.895c0.002-0.01,0.002-0.02,0.003-0.03l-0.638-0.043l0.632,0.104
										C501.627,296.915,501.628,296.905,501.629,296.895z"/>
								</g>
							</g>
							<g transform="rotate(144,500.001,285.46654)">
								<g id="ray_17_">
									<path opacity="0.6204" fill="#17C0EB" stroke="#17C0EB" stroke-width="0.1287" enable-background="new    " d="
										M502.518,309.8l0.299-1.016L500,296.706l1.871,12.3L502.518,309.8z"/>
									<path fill="#FFFFFF" d="M500.341,298.478c0.009-0.002,0.018-0.005,0.026-0.007l-0.159-0.684l0.106,0.696
										C500.323,298.481,500.332,298.479,500.341,298.478z"/>
								</g>
							</g>
							<g transform="rotate(216,500.001,285.46654)">
								<g id="ray_18_">
									<path opacity="0.6204" fill="#17C0EB" stroke="#17C0EB" stroke-width="0.1287" enable-background="new    " d="
										M489.515,303.399h0.966l9.519-6.693l-10.002,5.768L489.515,303.399z"/>
									<path fill="#FFFFFF" d="M498.582,297.611c0.004,0.009,0.009,0.018,0.014,0.026l0.539-0.379l-0.566,0.327
										C498.573,297.594,498.577,297.603,498.582,297.611z"/>
								</g>
							</g>
							<g transform="rotate(24,500.001,285.46654)">
								<g id="ray_19_">
									<path opacity="0.6204" fill="#17C0EB" stroke="#17C0EB" stroke-width="0.1287" enable-background="new    " d="
										M491.003,287.749l0.299,1.016l8.698,7.942l-8.052-8.735L491.003,287.749z"/>
									<path fill="#FFFFFF" d="M498.783,295.494c-0.006,0.007-0.012,0.015-0.018,0.023l0.492,0.449l-0.456-0.494
										C498.796,295.479,498.789,295.486,498.783,295.494z"/>
								</g>
							</g>
						</g>
						<g>
							<g id="rays5_4_">
								<g id="ray_20_">
									<path opacity="0.6204" fill="#17C0EB" stroke="#17C0EB" stroke-width="0.1287" enable-background="new    " d="
										M506.416,285.353l-0.854,0.502L500,296.706l6.382-10.285L506.416,285.353z"/>
									<path fill="#FFFFFF" d="M500.868,295.169c-0.008-0.005-0.016-0.01-0.023-0.015l-0.314,0.614l0.36-0.582
										C500.884,295.181,500.876,295.175,500.868,295.169z"/>
								</g>
								<g transform="rotate(72,500.001,285.46654)">
									<g id="ray_21_">
										<path opacity="0.6204" fill="#17C0EB" stroke="#17C0EB" stroke-width="0.1287" enable-background="new    " d="
											M511.747,299.944l-0.694-0.742L500,296.706l10.818,3.533L511.747,299.944z"/>
										<path fill="#FFFFFF" d="M501.59,297.144c0.002-0.01,0.004-0.02,0.006-0.03l-0.625-0.141l0.612,0.2
											C501.585,297.164,501.588,297.154,501.59,297.144z"/>
									</g>
								</g>
								<g transform="rotate(144,500.001,285.46654)">
									<g id="ray_22_">
										<path opacity="0.6204" fill="#17C0EB" stroke="#17C0EB" stroke-width="0.1287" enable-background="new    " d="
											M500.845,310.06l0.424-0.96L500,296.706l0.304,12.468L500.845,310.06z"/>
										<path fill="#FFFFFF" d="M500.115,298.513c0.009,0,0.018-0.002,0.027-0.003l-0.072-0.701l0.017,0.706
											C500.096,298.514,500.106,298.513,500.115,298.513z"/>
									</g>
								</g>
								<g transform="rotate(216,500.001,285.46654)">
									<g id="ray_23_">
										<path opacity="0.6204" fill="#17C0EB" stroke="#17C0EB" stroke-width="0.1287" enable-background="new    " d="
											M488.775,301.721l0.957,0.148L500,296.706l-10.63,4.173L488.775,301.721z"/>
										<path fill="#FFFFFF" d="M498.481,297.384c0.003,0.009,0.007,0.019,0.011,0.028l0.582-0.292l-0.602,0.236
											C498.475,297.365,498.478,297.375,498.481,297.384z"/>
									</g>
								</g>
								<g transform="rotate(32,500.001,285.46654)">
									<g id="ray_24_">
										<path opacity="0.6204" fill="#17C0EB" stroke="#17C0EB" stroke-width="0.1287" enable-background="new    " d="
											M492.218,286.451l0.168,1.052l7.614,9.203l-6.875-9.89L492.218,286.451z"/>
										<path fill="#FFFFFF" d="M498.947,295.318c-0.007,0.006-0.013,0.013-0.02,0.02l0.431,0.521l-0.389-0.56
											C498.962,295.306,498.954,295.312,498.947,295.318z"/>
									</g>
								</g>
							</g>
							<g>
								<g id="rays5_5_">
									<g id="ray_25_">
										<path opacity="0.6204" fill="#17C0EB" stroke="#17C0EB" stroke-width="0.1287" enable-background="new    " d="
											M507.782,286.451l-0.907,0.365l-6.875,9.89l7.614-9.203L507.782,286.451z"/>
										<path fill="#FFFFFF" d="M501.054,295.318c-0.008-0.007-0.015-0.013-0.021-0.019l-0.39,0.56l0.432-0.521
											C501.067,295.332,501.061,295.325,501.054,295.318z"/>
									</g>
									<g transform="rotate(72,500.001,285.46654)">
										<g id="ray_26_">
											<path opacity="0.6204" fill="#17C0EB" stroke="#17C0EB" stroke-width="0.1287" enable-background="new    " d="
												M511.226,301.721l-0.595-0.842L500,296.706l10.269,5.163L511.226,301.721z"/>
											<path fill="#FFFFFF" d="M501.52,297.384c0.003-0.009,0.006-0.019,0.009-0.028l-0.602-0.236l0.581,0.292
												C501.512,297.403,501.516,297.394,501.52,297.384z"/>
										</g>
									</g>
									<g transform="rotate(144,500.001,285.46654)">
										<g id="ray_27_">
											<path opacity="0.6204" fill="#17C0EB" stroke="#17C0EB" stroke-width="0.1287" enable-background="new    " d="
												M499.156,310.06l0.54-0.886L500,296.706l-1.268,12.394L499.156,310.06z"/>
											<path fill="#FFFFFF" d="M499.886,298.513c0.009,0.001,0.019,0.001,0.027,0.001l0.017-0.706l-0.071,0.701
												C499.868,298.511,499.877,298.512,499.886,298.513z"/>
										</g>
									</g>
									<g transform="rotate(216,500.001,285.46654)">
										<g id="ray_28_">
											<path opacity="0.6204" fill="#17C0EB" stroke="#17C0EB" stroke-width="0.1287" enable-background="new    " d="
												M488.253,299.944l0.929,0.294L500,296.706l-11.052,2.496L488.253,299.944z"/>
											<path fill="#FFFFFF" d="M498.411,297.144c0.002,0.01,0.004,0.02,0.007,0.029l0.612-0.2l-0.625,0.141
												C498.406,297.125,498.408,297.134,498.411,297.144z"/>
										</g>
									</g>
									<g transform="rotate(40,500.001,285.46654)">
										<g id="ray_29_">
											<path opacity="0.6204" fill="#17C0EB" stroke="#17C0EB" stroke-width="0.1287" enable-background="new    " d="
												M493.585,285.353l0.034,1.068L500,296.706l-5.563-10.851L493.585,285.353z"/>
											<path fill="#FFFFFF" d="M499.132,295.169c-0.007,0.005-0.015,0.011-0.022,0.017l0.361,0.582l-0.314-0.614
												C499.148,295.159,499.14,295.164,499.132,295.169z"/>
										</g>
									</g>
								</g>
								<g>
									<g id="rays5_6_">
										<g id="ray_30_">
											<path opacity="0.6204" fill="#17C0EB" stroke="#17C0EB" stroke-width="0.1287" enable-background="new    " d="
												M508.997,287.749l-0.944,0.222L500,296.706l8.699-7.941L508.997,287.749z"/>
											<path fill="#FFFFFF" d="M501.218,295.494c-0.006-0.007-0.013-0.015-0.019-0.022l-0.456,0.494l0.492-0.449
												C501.23,295.509,501.224,295.501,501.218,295.494z"/>
										</g>
										<g transform="rotate(72,500.001,285.46654)">
											<g id="ray_31_">
												<path opacity="0.6204" fill="#17C0EB" stroke="#17C0EB" stroke-width="0.1287" enable-background="new    " d="
													M510.486,303.399l-0.483-0.926L500,296.706l9.519,6.694H510.486z"/>
												<path fill="#FFFFFF" d="M501.419,297.611c0.005-0.008,0.009-0.018,0.013-0.026l-0.565-0.327l0.538,0.379
													C501.409,297.629,501.414,297.62,501.419,297.611z"/>
											</g>
										</g>
										<g transform="rotate(144,500.001,285.46654)">
											<g id="ray_32_">
												<path opacity="0.6204" fill="#17C0EB" stroke="#17C0EB" stroke-width="0.1287" enable-background="new    " d="
													M497.483,309.8l0.646-0.794l1.871-12.3l-2.816,12.079L497.483,309.8z"/>
												<path fill="#FFFFFF" d="M499.66,298.478c0.009,0.002,0.018,0.004,0.027,0.006l0.105-0.696l-0.159,0.684
													C499.642,298.473,499.651,298.476,499.66,298.478z"/>
											</g>
										</g>
										<g transform="rotate(216,500.001,285.46654)">
											<g id="ray_33_">
												<path opacity="0.6204" fill="#17C0EB" stroke="#17C0EB" stroke-width="0.1287" enable-background="new    " d="
													M487.96,298.105l0.883,0.435L500,296.706l-11.259,0.771L487.96,298.105z"/>
												<path fill="#FFFFFF" d="M498.371,296.895c0.001,0.01,0.002,0.02,0.003,0.03l0.632-0.104l-0.637,0.043
													C498.369,296.875,498.37,296.885,498.371,296.895z"/>
											</g>
										</g>
										<g transform="rotate(48,500.001,285.46654)">
											<g id="ray_34_">
												<path opacity="0.6204" fill="#17C0EB" stroke="#17C0EB" stroke-width="0.1287" enable-background="new    " d="
													M495.076,284.477l-0.101,1.063L500,296.706l-4.143-11.601L495.076,284.477z"/>
												<path fill="#FFFFFF" d="M499.334,295.051c-0.008,0.004-0.017,0.009-0.025,0.013l0.284,0.632l-0.234-0.657
													C499.351,295.043,499.343,295.047,499.334,295.051z"/>
											</g>
										</g>
									</g>
									<g>
										<g id="rays5_7_">
											<g id="ray_35_">
												<path opacity="0.6204" fill="#17C0EB" stroke="#17C0EB" stroke-width="0.1287" enable-background="new    " d="
													M510.037,289.22l-0.964,0.074L500,296.706l9.614-6.526L510.037,289.22z"/>
												<path fill="#FFFFFF" d="M501.359,295.693c-0.005-0.008-0.011-0.017-0.016-0.025l-0.514,0.419l0.544-0.369
													C501.368,295.71,501.364,295.701,501.359,295.693z"/>
											</g>
											<g transform="rotate(72,500.001,285.46654)">
												<g id="ray_36_">
													<path opacity="0.6204" fill="#17C0EB" stroke="#17C0EB" stroke-width="0.1287" enable-background="new    " d="
														M509.54,304.947l-0.361-0.99L500,296.706l8.584,8.093L509.54,304.947z"/>
													<path fill="#FFFFFF" d="M501.291,297.821c0.006-0.008,0.011-0.016,0.017-0.024l-0.52-0.411l0.485,0.458
														C501.28,297.836,501.285,297.829,501.291,297.821z"/>
												</g>
											</g>
											<g transform="rotate(144,500.001,285.46654)">
												<g id="ray_37_">
													<path opacity="0.6204" fill="#17C0EB" stroke="#17C0EB" stroke-width="0.1287" enable-background="new    " d="
														M495.86,309.285l0.74-0.687l3.4-11.893l-4.309,11.528L495.86,309.285z"/>
													<path fill="#FFFFFF" d="M499.44,298.408c0.008,0.003,0.017,0.007,0.026,0.01l0.192-0.673l-0.244,0.652
														C499.423,298.4,499.431,298.404,499.44,298.408z"/>
												</g>
											</g>
											<g transform="rotate(216,500.001,285.46654)">
												<g id="ray_38_">
													<path opacity="0.6204" fill="#17C0EB" stroke="#17C0EB" stroke-width="0.1287" enable-background="new    " d="
														M487.901,296.238l0.819,0.566l11.28-0.099l-11.247-0.969L487.901,296.238z"/>
													<path fill="#FFFFFF" d="M498.363,296.643c0,0.01,0,0.02,0,0.03l0.639-0.006l-0.637-0.055
														C498.364,296.623,498.364,296.632,498.363,296.643z"/>
												</g>
											</g>
											<g transform="rotate(56,500.001,285.46654)">
												<g id="ray_39_">
													<path opacity="0.6204" fill="#17C0EB" stroke="#17C0EB" stroke-width="0.1287" enable-background="new    " d="
														M496.663,283.838l-0.234,1.037L500,296.706l-2.642-12.126L496.663,283.838z"/>
													<path fill="#FFFFFF" d="M499.549,294.964c-0.008,0.003-0.017,0.006-0.026,0.009l0.202,0.669l-0.149-0.687
														C499.567,294.959,499.557,294.962,499.549,294.964z"/>
												</g>
											</g>
										</g>
										<g id="rays">
											<g id="rays5_8_">
												<g id="ray_40_">
													<path opacity="0.6204" fill="#17C0EB" stroke="#17C0EB" stroke-width="0.1287" enable-background="new    " d="
														M510.882,290.837l-0.964-0.075L500,296.706l10.342-4.983L510.882,290.837z"/>
													<path fill="#FFFFFF" d="M501.473,295.912c-0.004-0.009-0.009-0.018-0.013-0.027l-0.562,0.336l0.586-0.282
														C501.481,295.93,501.477,295.921,501.473,295.912z"/>
												</g>
												<g transform="rotate(72,500.001,285.46654)">
													<g id="ray_41_">
														<path opacity="0.6204" fill="#17C0EB" stroke="#17C0EB" stroke-width="0.1287" enable-background="new    " d="
															M508.41,306.335l-0.233-1.036L500,296.706l7.481,9.335L508.41,306.335z"/>
														<path fill="#FFFFFF" d="M501.138,298.009c0.007-0.007,0.014-0.014,0.02-0.021l-0.463-0.486l0.424,0.528
															C501.125,298.022,501.132,298.016,501.138,298.009z"/>
													</g>
												</g>
												<g transform="rotate(144,500.001,285.46654)">
													<g id="ray_42_">
														<path opacity="0.6204" fill="#17C0EB" stroke="#17C0EB" stroke-width="0.1287" enable-background="new    " d="
															M494.317,308.525l0.819-0.566L500,296.706l-5.718,10.752L494.317,308.525z"/>
														<path fill="#FFFFFF" d="M499.231,298.305c0.008,0.005,0.016,0.009,0.024,0.014l0.275-0.637l-0.324,0.608
															C499.215,298.295,499.223,298.3,499.231,298.305z"/>
													</g>
												</g>
												<g transform="rotate(216,500.001,285.46654)">
													<g id="ray_43_">
														<path opacity="0.6204" fill="#17C0EB" stroke="#17C0EB" stroke-width="0.1287" enable-background="new    " d="
															M488.077,294.381l0.74,0.687L500,296.706l-11.015-2.69L488.077,294.381z"/>
														<path fill="#FFFFFF" d="M498.387,296.391c-0.001,0.01-0.003,0.02-0.004,0.03l0.633,0.093l-0.624-0.152
															C498.39,296.371,498.388,296.381,498.387,296.391z"/>
													</g>
												</g>
												<g transform="rotate(64,500.001,285.46654)">
													<g id="ray_44_">
														<path opacity="0.6204" fill="#17C0EB" stroke="#17C0EB" stroke-width="0.1287" enable-background="new    " d="
															M498.315,283.449l-0.362,0.991L500,296.706l-1.09-12.415L498.315,283.449z"/>
														<path fill="#FFFFFF" d="M499.772,294.912c-0.009,0.001-0.018,0.003-0.027,0.005l0.116,0.694l-0.062-0.703
															C499.79,294.91,499.781,294.911,499.772,294.912z"/>
													</g>
												</g>
											</g>
										</g>
										<g id="rainbow">
											<path fill="#FF0000" d="M500,292.258c-2.269,0-4.345,0.918-5.939,2.437l-3.004,5.758
												c-0.103,0.605-0.153,1.231-0.153,1.87h1.031c0-4.925,3.611-8.918,8.065-8.918s8.065,3.993,8.065,8.918h1.031
												c0-0.638-0.051-1.266-0.153-1.87l-3.005-5.758C504.345,293.177,502.269,292.258,500,292.258L500,292.258z"/>
											<path fill="#FF6600" d="M500,292.442c-2.412,0-4.6,1.06-6.208,2.777l-2.466,4.725c-0.171,0.763-0.263,1.559-0.263,2.38
												h0.871c0-4.925,3.611-8.918,8.065-8.918s8.065,3.993,8.065,8.918h0.871c0-0.821-0.092-1.624-0.263-2.387l-2.466-4.717
												C504.601,293.502,502.411,292.442,500,292.442L500,292.442z"/>
											<path fill="#FFFF00" d="M500,292.626c-2.604,0-4.941,1.251-6.547,3.244l-1.787,3.421
												c-0.284,0.954-0.436,1.973-0.436,3.031h0.705c0-4.924,3.611-8.918,8.065-8.918s8.065,3.994,8.065,8.918h0.705
												c0-1.06-0.152-2.077-0.436-3.031l-1.788-3.422C504.941,293.878,502.604,292.626,500,292.626L500,292.626z"/>
											<path fill="#00FF00" d="M500,292.803c-2.983,0-5.611,1.681-7.156,4.229l-0.577,1.105
												c-0.561,1.263-0.878,2.684-0.878,4.186h0.545c0-4.924,3.611-8.918,8.065-8.918s8.065,3.993,8.065,8.918h0.544
												c0-1.499-0.318-2.917-0.877-4.179l-0.583-1.119C505.605,294.48,502.981,292.803,500,292.803L500,292.803z"/>
											<path fill="#00CCFF" d="M500,292.987c-4.664,0-8.443,4.18-8.443,9.336h0.378c0-4.925,3.611-8.918,8.065-8.918
												s8.065,3.993,8.065,8.918h0.378C508.444,297.167,504.663,292.987,500,292.987L500,292.987z"/>
											<path fill="#0000FF" d="M500,293.165c-4.573,0-8.277,4.103-8.277,9.159h0.275c0-4.887,3.582-8.847,8.001-8.847
												s8.001,3.96,8.001,8.847h0.282C508.283,297.268,504.573,293.165,500,293.165L500,293.165z"/>
											<path fill="#800080" d="M500,293.349c-4.482,0-8.116,4.018-8.116,8.973c0,0.056,0.001,0.111,0.001,0.166h0.164
												c-0.001-0.055-0.001-0.11-0.001-0.166c0-4.855,3.56-8.792,7.951-8.792s7.951,3.937,7.951,8.792
												c0,0.056,0,0.111-0.001,0.166h0.163c0.001-0.055,0.002-0.11,0.002-0.166C508.115,297.367,504.483,293.349,500,293.349
												L500,293.349z"/>
										</g>
										<g id="cap">
											<path fill="#510000" d="M500.081,297.311c-0.132-0.028-0.251-0.11-0.364-0.138c-0.155,0.164-0.171,0.33-0.15,0.471
												c0.054,0.032,0.064,0.08,0.18,0.195c0.116,0.115,0.102,0.175,0.095,0.446c-0.003,0.114,0.014,0.358,0.119,0.381
												c0.112,0.025,0.191-0.078,0.224-0.263c0.031-0.179,0.085-0.276,0.143-0.386
												C500.39,297.597,500.288,297.448,500.081,297.311z"/>
											<path fill="#FF0000" d="M499.42,296.266c-0.122,0.003-0.313,0.229-0.398,0.107c-0.049-0.07-0.057-0.204-0.007-0.317
												c0.114-0.261,0.23-0.389,0.444-0.528c0.488-0.317,0.797-0.215,1.041,0.241c0.225,0.402,0.441,0.845,0.46,1.218
												c0.006,0.113,0.059,0.319-0.031,0.421c-0.276,0.315-0.942-0.325-1.333-0.224c-0.131,0.034-0.282,0.14-0.406,0.049
												c-0.096-0.07-0.016-0.226,0.056-0.293c0.125-0.118,0.308-0.536,0.283-0.717
												C499.513,296.121,499.511,296.263,499.42,296.266L499.42,296.266z"/>
											
												<linearGradient id="SVGID_3_" gradientUnits="userSpaceOnUse" x1="508.2346" y1="326.4834" x2="508.6644" y2="327.7662" gradientTransform="matrix(1 0 0 -1 -8.3599 624.0547)">
												<stop  offset="0" style="stop-color:#510000"/>
												<stop  offset="0.3" style="stop-color:#8A0000"/>
												<stop  offset="1" style="stop-color:#AA0000"/>
											</linearGradient>
											<path fill="url(#SVGID_3_)" d="M499.37,296.044c-0.222,0.101-0.198,0.244-0.31,0.361c0.032,0.013,0.157,0.07,0.279-0.068
												c0.053-0.048,0.112-0.066,0.139-0.082c-0.063,0.05-0.107,0.125-0.14,0.155c-0.083,0.075-0.212,0.246-0.275,0.419
												c-0.063,0.173-0.088,0.379-0.077,0.404c0.011,0.024,0.087,0.176,0.321,0.279c0.417,0.183,0.496,0.553,0.918,0.553
												c0.331,0,0.277-0.239,0.543-0.188c0.229,0.044,0.351-0.158,0.13-0.279c-0.281-0.106-0.839-0.043-1.102,0.007
												c-0.084-0.926-0.011-0.601-0.031-0.999c-0.02-0.398-0.128-0.422,0.015-0.744
												C499.662,296.059,499.519,296.028,499.37,296.044L499.37,296.044z"/>
											<path fill="#FF2A2A" d="M500.193,295.42c-0.008,0.05-0.016,0.117-0.012,0.136c0.018,0.077,0.036,0.157,0.057,0.225
												c0.023,0.077,0.033,0.131,0.049,0.21c0.017,0.082,0.082,0.113,0.142,0.164c0.076,0.064,0.017,0.235,0.064,0.242
												c0.038,0.006,0.1-0.243,0.1-0.282c0-0.054,0-0.097-0.007-0.147c-0.028-0.066-0.056-0.132-0.087-0.197
												c0-0.001-0.001-0.001-0.002-0.002c-0.013-0.026-0.025-0.051-0.04-0.075c-0.044-0.072-0.099-0.139-0.161-0.195
												c-0.004-0.003-0.007-0.007-0.011-0.011c-0.017-0.015-0.035-0.03-0.053-0.042
												C500.219,295.437,500.206,295.429,500.193,295.42L500.193,295.42z"/>
											
												<linearGradient id="SVGID_4_" gradientUnits="userSpaceOnUse" x1="508.2053" y1="326.1748" x2="508.5345" y2="327.0458" gradientTransform="matrix(1 0 0 -1 -8.3599 624.0547)">
												<stop  offset="0" style="stop-color:#FF2A2A"/>
												<stop  offset="1" style="stop-color:#FF0000"/>
											</linearGradient>
											<path fill="url(#SVGID_4_)" d="M500.256,297.144c-0.147-0.042-0.292-0.123-0.417-0.165
												c-0.246-0.081-0.508-0.257-0.69-0.184c-0.065,0.032-0.06,0.103-0.08,0.206c-0.008,0.121-0.122,0.299-0.028,0.241
												c0.141-0.087,0.511,0.166,0.635,0.251c0.059,0.04,0.183,0.119,0.221,0.231c0.039,0.113,0.019,0.398,0.009,0.521
												c-0.011,0.128,0.024,0.416,0.141,0.45c0.125,0.037,0.221-0.073,0.27-0.279c0.047-0.2,0.083-0.314,0.155-0.434
												s0.155-0.171,0.271-0.195c0.116-0.024,0.283,0.104,0.283-0.046c0-0.099-0.078-0.194-0.045-0.33
												c0.026-0.107-0.082-0.085-0.173-0.129C500.595,297.209,500.404,297.186,500.256,297.144L500.256,297.144z"/>
											<path fill="#910000" d="M499.664,297.484c-0.066-0.04-0.475-0.335-0.624-0.243c-0.047,0.029-0.065-0.003-0.066-0.058
												c0-0.055,0.022-0.135,0.038-0.197c0.016-0.062,0.041-0.179,0.106-0.241c0.141-0.131,0.465,0.13,0.637,0.201
												C499.741,297.046,499.659,297.481,499.664,297.484z"/>
											<path fill="#FF3A3A" d="M500.362,298.042c0.188-0.363,0.31-0.317,0.536-0.312c0.075,0.002,0.098-0.075,0.08-0.151
												c-0.057,0.142-0.341-0.016-0.495,0.06c-0.322,0.157-0.262,0.854-0.416,0.923
												C500.226,298.709,500.298,298.166,500.362,298.042L500.362,298.042z"/>
										</g>
										<g>
											<path fill="#FFFFFF" d="M490.386,301.732l-2.041,3.907h23.31l-2.041-3.907H490.386L490.386,301.732z"/>
											<g id="wavesb3">
												
													<linearGradient id="waveb1_9_" gradientUnits="userSpaceOnUse" x1="496.9841" y1="319.0625" x2="535.9144" y2="319.0625" gradientTransform="matrix(1 0 0 -1 -8.3599 624.0547)">
													<stop  offset="0" style="stop-color:#002255"/>
													<stop  offset="0.5" style="stop-color:#0044AA"/>
													<stop  offset="1" style="stop-color:#002255"/>
												</linearGradient>
												<path id="waveb1" fill="url(#waveb1_9_)" d="M489.69,304.843c-0.34,0-0.656,0.038-0.965,0.08l-0.1,0.191
													c0.499-0.049,0.963-0.147,1.464-0.16c0.675,0.018,1.288,0.188,2.006,0.188c0.311,0.003,0.62-0.007,0.928,0
													c0.717,0,1.33-0.17,2.005-0.188c0.676,0.018,1.292,0.188,2.01,0.188c0.311,0.001,0.651-0.005,0.929,0
													c0.717,0,1.327-0.17,2.002-0.188c0.675,0.018,1.285,0.188,2.002,0.188c0.314,0.003,0.622-0.007,0.932,0
													c0.718,0,1.331-0.17,2.007-0.188c0.675,0.018,1.287,0.188,2.005,0.188c0.311,0.003,0.621-0.007,0.929,0
													c0.717,0,1.327-0.17,2.002-0.188c0.522,0.014,1.009,0.117,1.534,0.164l-0.105-0.203
													c-0.287-0.038-0.581-0.072-0.896-0.072c-0.313-0.005-0.622,0.007-0.932,0c-0.718,0-1.327,0.169-2.002,0.188
													c-0.676-0.018-1.288-0.188-2.006-0.188c-0.311-0.005-0.622,0.007-0.929,0c-0.717,0-1.33,0.17-2.006,0.188
													c-0.675-0.018-1.288-0.188-2.005-0.188c-0.312-0.005-0.624,0.007-0.932,0c-0.717,0-1.327,0.17-2.002,0.188
													c-0.675-0.018-1.285-0.188-2.002-0.188c-0.312-0.005-0.621,0.007-0.928,0c-0.718,0-1.331,0.17-2.006,0.188
													c-0.675-0.019-1.288-0.188-2.005-0.188C490.31,304.838,489.998,304.85,489.69,304.843L489.69,304.843z"/>
												<g>
													
														<linearGradient id="waveb1_10_" gradientUnits="userSpaceOnUse" x1="496.9841" y1="318.2012" x2="535.9144" y2="318.2012" gradientTransform="matrix(1 0 0 -1 -8.3599 622.9414)">
														<stop  offset="0" style="stop-color:#002255"/>
														<stop  offset="0.5" style="stop-color:#0044AA"/>
														<stop  offset="1" style="stop-color:#002255"/>
													</linearGradient>
													<path id="waveb1_1_" fill="url(#waveb1_10_)" d="M489.69,304.59c-0.34,0-0.656,0.038-0.965,0.08l-0.1,0.192
														c0.499-0.05,0.963-0.147,1.464-0.161c0.675,0.019,1.288,0.188,2.006,0.188c0.311,0.003,0.62-0.007,0.928,0
														c0.717,0,1.33-0.17,2.005-0.188c0.676,0.019,1.292,0.188,2.01,0.188c0.311,0.001,0.651-0.006,0.929,0
														c0.717,0,1.327-0.17,2.002-0.188c0.675,0.019,1.285,0.188,2.002,0.188c0.314,0.003,0.622-0.007,0.932,0
														c0.718,0,1.331-0.17,2.007-0.188c0.675,0.019,1.287,0.188,2.005,0.188c0.311,0.003,0.621-0.007,0.929,0
														c0.717,0,1.327-0.17,2.002-0.188c0.522,0.014,1.009,0.117,1.534,0.164l-0.105-0.202
														c-0.287-0.038-0.581-0.073-0.896-0.073c-0.313-0.004-0.622,0.007-0.932,0c-0.718,0-1.327,0.17-2.002,0.188
														c-0.676-0.019-1.288-0.188-2.006-0.188c-0.311-0.004-0.622,0.007-0.929,0c-0.717,0-1.33,0.17-2.006,0.188
														c-0.675-0.019-1.288-0.188-2.005-0.188c-0.312-0.004-0.624,0.007-0.932,0c-0.717,0-1.327,0.17-2.002,0.188
														c-0.675-0.019-1.285-0.188-2.002-0.188c-0.312-0.005-0.621,0.008-0.928,0c-0.718,0-1.331,0.17-2.006,0.188
														c-0.675-0.019-1.288-0.188-2.005-0.188C490.31,304.586,489.998,304.598,489.69,304.59L489.69,304.59z"/>
												</g>
												<g>
													
														<linearGradient id="waveb1_11_" gradientUnits="userSpaceOnUse" x1="496.9841" y1="317.3379" x2="535.9144" y2="317.3379" gradientTransform="matrix(1 0 0 -1 -8.3599 621.8242)">
														<stop  offset="0" style="stop-color:#002255"/>
														<stop  offset="0.5" style="stop-color:#0044AA"/>
														<stop  offset="1" style="stop-color:#002255"/>
													</linearGradient>
													<path id="waveb1_2_" fill="url(#waveb1_11_)" d="M489.69,304.337c-0.34,0-0.656,0.038-0.965,0.08l-0.1,0.191
														c0.499-0.049,0.963-0.146,1.464-0.16c0.675,0.018,1.288,0.188,2.006,0.188c0.311,0.004,0.62-0.006,0.928,0
														c0.717,0,1.33-0.17,2.005-0.188c0.676,0.018,1.292,0.188,2.01,0.188c0.311,0.001,0.651-0.005,0.929,0
														c0.717,0,1.327-0.17,2.002-0.188c0.675,0.018,1.285,0.188,2.002,0.188c0.314,0.004,0.622-0.007,0.932,0
														c0.718,0,1.331-0.17,2.007-0.188c0.675,0.018,1.287,0.188,2.005,0.188c0.311,0.003,0.621-0.006,0.929,0
														c0.717,0,1.327-0.17,2.002-0.188c0.522,0.014,1.009,0.117,1.534,0.164l-0.105-0.202
														c-0.287-0.039-0.581-0.073-0.896-0.073c-0.313-0.005-0.622,0.007-0.932,0c-0.718,0-1.327,0.17-2.002,0.188
														c-0.676-0.019-1.288-0.188-2.006-0.188c-0.311-0.005-0.622,0.007-0.929,0c-0.717,0-1.33,0.17-2.006,0.188
														c-0.675-0.019-1.288-0.188-2.005-0.188c-0.312-0.005-0.624,0.007-0.932,0c-0.717,0-1.327,0.17-2.002,0.188
														c-0.675-0.019-1.285-0.188-2.002-0.188c-0.312-0.005-0.621,0.007-0.928,0c-0.718,0-1.331,0.17-2.006,0.188
														c-0.675-0.019-1.288-0.188-2.005-0.188C490.31,304.332,489.998,304.344,489.69,304.337L489.69,304.337z"/>
												</g>
											</g>
											<g>
												<g id="wavesb3_1_">
													
														<linearGradient id="waveb1_12_" gradientUnits="userSpaceOnUse" x1="496.9841" y1="316.4766" x2="535.9144" y2="316.4766" gradientTransform="matrix(1 0 0 -1 -8.3599 620.7109)">
														<stop  offset="0" style="stop-color:#002255"/>
														<stop  offset="0.5" style="stop-color:#0044AA"/>
														<stop  offset="1" style="stop-color:#002255"/>
													</linearGradient>
													<path id="waveb1_3_" fill="url(#waveb1_12_)" d="M489.69,304.085c-0.34,0-0.656,0.037-0.965,0.08l-0.1,0.191
														c0.499-0.049,0.963-0.147,1.464-0.161c0.675,0.019,1.288,0.188,2.006,0.188c0.311,0.003,0.62-0.007,0.928,0
														c0.717,0,1.33-0.17,2.005-0.188c0.676,0.019,1.292,0.188,2.01,0.188c0.311,0.001,0.651-0.006,0.929,0
														c0.717,0,1.327-0.17,2.002-0.188c0.675,0.019,1.285,0.188,2.002,0.188c0.314,0.003,0.622-0.007,0.932,0
														c0.718,0,1.331-0.17,2.007-0.188c0.675,0.019,1.287,0.188,2.005,0.188c0.311,0.003,0.621-0.007,0.929,0
														c0.717,0,1.327-0.17,2.002-0.188c0.522,0.015,1.009,0.118,1.534,0.164l-0.105-0.202
														c-0.287-0.038-0.581-0.073-0.896-0.073c-0.313-0.004-0.622,0.008-0.932,0c-0.718,0-1.327,0.17-2.002,0.188
														c-0.676-0.018-1.288-0.188-2.006-0.188c-0.311-0.004-0.622,0.008-0.929,0c-0.717,0-1.33,0.171-2.006,0.188
														c-0.675-0.018-1.288-0.188-2.005-0.188c-0.312-0.004-0.624,0.008-0.932,0c-0.717,0-1.327,0.171-2.002,0.188
														c-0.675-0.018-1.285-0.188-2.002-0.188c-0.312-0.004-0.621,0.008-0.928,0c-0.718,0-1.331,0.171-2.006,0.188
														c-0.675-0.019-1.288-0.188-2.005-0.188C490.31,304.08,489.998,304.092,489.69,304.085L489.69,304.085z"/>
													<g>
														
															<linearGradient id="waveb1_13_" gradientUnits="userSpaceOnUse" x1="496.9841" y1="315.6152" x2="535.9144" y2="315.6152" gradientTransform="matrix(1 0 0 -1 -8.3599 619.5977)">
															<stop  offset="0" style="stop-color:#002255"/>
															<stop  offset="0.5" style="stop-color:#0044AA"/>
															<stop  offset="1" style="stop-color:#002255"/>
														</linearGradient>
														<path id="waveb1_4_" fill="url(#waveb1_13_)" d="M489.69,303.832c-0.34,0-0.656,0.038-0.965,0.08l-0.1,0.192
															c0.499-0.05,0.963-0.147,1.464-0.161c0.675,0.019,1.288,0.188,2.006,0.188c0.311,0.003,0.62-0.007,0.928,0
															c0.717,0,1.33-0.17,2.005-0.188c0.676,0.019,1.292,0.188,2.01,0.188c0.311,0.001,0.651-0.006,0.929,0
															c0.717,0,1.327-0.17,2.002-0.188c0.675,0.019,1.285,0.188,2.002,0.188c0.314,0.003,0.622-0.008,0.932,0
															c0.718,0,1.331-0.17,2.007-0.188c0.675,0.018,1.287,0.188,2.005,0.188c0.311,0.003,0.621-0.007,0.929,0
															c0.717,0,1.327-0.17,2.002-0.188c0.522,0.014,1.009,0.117,1.534,0.164l-0.105-0.202
															c-0.287-0.038-0.581-0.073-0.896-0.073c-0.313-0.004-0.622,0.007-0.932,0c-0.718,0-1.327,0.17-2.002,0.188
															c-0.676-0.019-1.288-0.188-2.006-0.188c-0.311-0.004-0.622,0.007-0.929,0c-0.717,0-1.33,0.17-2.006,0.188
															c-0.675-0.019-1.288-0.188-2.005-0.188c-0.312-0.004-0.624,0.007-0.932,0c-0.717,0-1.327,0.17-2.002,0.188
															c-0.675-0.019-1.285-0.188-2.002-0.188c-0.312-0.005-0.621,0.008-0.928,0c-0.718,0-1.331,0.17-2.006,0.188
															c-0.675-0.019-1.288-0.188-2.005-0.188C490.31,303.828,489.998,303.84,489.69,303.832L489.69,303.832z"/>
													</g>
													<g>
														
															<linearGradient id="waveb1_14_" gradientUnits="userSpaceOnUse" x1="496.9841" y1="314.752" x2="535.9144" y2="314.752" gradientTransform="matrix(1 0 0 -1 -8.3599 618.4805)">
															<stop  offset="0" style="stop-color:#002255"/>
															<stop  offset="0.5" style="stop-color:#0044AA"/>
															<stop  offset="1" style="stop-color:#002255"/>
														</linearGradient>
														<path id="waveb1_5_" fill="url(#waveb1_14_)" d="M489.69,303.579c-0.34,0-0.656,0.038-0.965,0.08l-0.1,0.191
															c0.499-0.049,0.963-0.146,1.464-0.16c0.675,0.018,1.288,0.188,2.006,0.188c0.311,0.004,0.62-0.007,0.928,0
															c0.717,0,1.33-0.17,2.005-0.188c0.676,0.018,1.292,0.188,2.01,0.188c0.311,0.001,0.651-0.005,0.929,0
															c0.717,0,1.327-0.17,2.002-0.188c0.675,0.018,1.285,0.188,2.002,0.188c0.314,0.004,0.622-0.007,0.932,0
															c0.718,0,1.331-0.17,2.007-0.188c0.675,0.018,1.287,0.188,2.005,0.188c0.311,0.003,0.621-0.007,0.929,0
															c0.717,0,1.327-0.17,2.002-0.188c0.522,0.014,1.009,0.117,1.534,0.164l-0.105-0.202
															c-0.287-0.039-0.581-0.073-0.896-0.073c-0.313-0.005-0.622,0.007-0.932,0c-0.718,0-1.327,0.17-2.002,0.188
															c-0.676-0.018-1.288-0.188-2.006-0.188c-0.311-0.005-0.622,0.007-0.929,0c-0.717,0-1.33,0.17-2.006,0.188
															c-0.675-0.018-1.288-0.188-2.005-0.188c-0.312-0.005-0.624,0.007-0.932,0c-0.717,0-1.327,0.17-2.002,0.188
															c-0.675-0.018-1.285-0.188-2.002-0.188c-0.312-0.005-0.621,0.007-0.928,0c-0.718,0-1.331,0.17-2.006,0.188
															c-0.675-0.018-1.288-0.188-2.005-0.188C490.31,303.574,489.998,303.586,489.69,303.579L489.69,303.579z"/>
													</g>
												</g>
												<g id="seab">
													<g id="wavesb3_2_">
														
															<linearGradient id="waveb1_15_" gradientUnits="userSpaceOnUse" x1="496.9841" y1="313.8887" x2="535.9144" y2="313.8887" gradientTransform="matrix(1 0 0 -1 -8.3599 617.3633)">
															<stop  offset="0" style="stop-color:#002255"/>
															<stop  offset="0.5" style="stop-color:#0044AA"/>
															<stop  offset="1" style="stop-color:#002255"/>
														</linearGradient>
														<path id="waveb1_6_" fill="url(#waveb1_15_)" d="M489.69,303.326c-0.34,0-0.656,0.037-0.965,0.079l-0.1,0.192
															c0.499-0.049,0.963-0.147,1.464-0.161c0.675,0.019,1.288,0.188,2.006,0.188c0.311,0.003,0.62-0.007,0.928,0
															c0.717,0,1.33-0.17,2.005-0.188c0.676,0.019,1.292,0.188,2.01,0.188c0.311,0.001,0.651-0.006,0.929,0
															c0.717,0,1.327-0.17,2.002-0.188c0.675,0.019,1.285,0.188,2.002,0.188c0.314,0.003,0.622-0.007,0.932,0
															c0.718,0,1.331-0.17,2.007-0.188c0.675,0.019,1.287,0.188,2.005,0.188c0.311,0.003,0.621-0.007,0.929,0
															c0.717,0,1.327-0.17,2.002-0.188c0.522,0.015,1.009,0.118,1.534,0.164l-0.105-0.202
															c-0.287-0.038-0.581-0.073-0.896-0.073c-0.313-0.004-0.622,0.008-0.932,0c-0.718,0-1.327,0.17-2.002,0.188
															c-0.676-0.018-1.288-0.188-2.006-0.188c-0.311-0.004-0.622,0.008-0.929,0c-0.717,0-1.33,0.171-2.006,0.188
															c-0.675-0.018-1.288-0.188-2.005-0.188c-0.312-0.004-0.624,0.008-0.932,0c-0.717,0-1.327,0.171-2.002,0.188
															c-0.675-0.018-1.285-0.188-2.002-0.188c-0.312-0.004-0.621,0.008-0.928,0c-0.718,0-1.331,0.171-2.006,0.188
															c-0.675-0.019-1.288-0.188-2.005-0.188C490.31,303.321,489.998,303.333,489.69,303.326L489.69,303.326z"/>
														<g>
															
																<linearGradient id="waveb1_16_" gradientUnits="userSpaceOnUse" x1="496.9841" y1="313.0273" x2="535.9144" y2="313.0273" gradientTransform="matrix(1 0 0 -1 -8.3599 616.25)">
																<stop  offset="0" style="stop-color:#002255"/>
																<stop  offset="0.5" style="stop-color:#0044AA"/>
																<stop  offset="1" style="stop-color:#002255"/>
															</linearGradient>
															<path id="waveb1_7_" fill="url(#waveb1_16_)" d="M489.69,303.073c-0.34,0-0.656,0.038-0.965,0.08l-0.1,0.192
																c0.499-0.05,0.963-0.147,1.464-0.161c0.675,0.019,1.288,0.188,2.006,0.188c0.311,0.004,0.62-0.006,0.928,0
																c0.717,0,1.33-0.169,2.005-0.188c0.676,0.019,1.292,0.188,2.01,0.188c0.311,0.002,0.651-0.005,0.929,0
																c0.717,0,1.327-0.169,2.002-0.188c0.675,0.019,1.285,0.188,2.002,0.188c0.314,0.004,0.622-0.007,0.932,0
																c0.718,0,1.331-0.169,2.007-0.188c0.675,0.018,1.287,0.188,2.005,0.188c0.311,0.004,0.621-0.006,0.929,0
																c0.717,0,1.327-0.169,2.002-0.188c0.522,0.014,1.009,0.117,1.534,0.164l-0.105-0.202
																c-0.287-0.038-0.581-0.073-0.896-0.073c-0.313-0.004-0.622,0.007-0.932,0c-0.718,0-1.327,0.17-2.002,0.188
																c-0.676-0.019-1.288-0.188-2.006-0.188c-0.311-0.004-0.622,0.007-0.929,0c-0.717,0-1.33,0.17-2.006,0.188
																c-0.675-0.019-1.288-0.188-2.005-0.188c-0.312-0.004-0.624,0.007-0.932,0c-0.717,0-1.327,0.17-2.002,0.188
																c-0.675-0.019-1.285-0.188-2.002-0.188c-0.312-0.005-0.621,0.008-0.928,0c-0.718,0-1.331,0.17-2.006,0.188
																c-0.675-0.019-1.288-0.188-2.005-0.188C490.31,303.069,489.998,303.081,489.69,303.073L489.69,303.073z"/>
														</g>
														<g>
															
																<linearGradient id="waveb1_17_" gradientUnits="userSpaceOnUse" x1="496.9841" y1="312.1631" x2="535.9144" y2="312.1631" gradientTransform="matrix(1 0 0 -1 -8.3599 615.1328)">
																<stop  offset="0" style="stop-color:#002255"/>
																<stop  offset="0.5" style="stop-color:#0044AA"/>
																<stop  offset="1" style="stop-color:#002255"/>
															</linearGradient>
															<path id="waveb1_8_" fill="url(#waveb1_17_)" d="M489.69,302.82c-0.34,0-0.656,0.038-0.965,0.08l-0.1,0.191
																c0.499-0.049,0.963-0.146,1.464-0.16c0.675,0.018,1.288,0.188,2.006,0.188c0.311,0.004,0.62-0.007,0.928,0
																c0.717,0,1.33-0.17,2.005-0.188c0.676,0.018,1.292,0.188,2.01,0.188c0.311,0.001,0.651-0.005,0.929,0
																c0.717,0,1.327-0.17,2.002-0.188c0.675,0.018,1.285,0.188,2.002,0.188c0.314,0.004,0.622-0.007,0.932,0
																c0.718,0,1.331-0.17,2.007-0.188c0.675,0.018,1.287,0.188,2.005,0.188c0.311,0.003,0.621-0.007,0.929,0
																c0.717,0,1.327-0.17,2.002-0.188c0.522,0.014,1.009,0.117,1.534,0.164l-0.105-0.202
																c-0.287-0.039-0.581-0.073-0.896-0.073c-0.313-0.005-0.622,0.007-0.932,0c-0.718,0-1.327,0.17-2.002,0.188
																c-0.676-0.018-1.288-0.188-2.006-0.188c-0.311-0.005-0.622,0.007-0.929,0c-0.717,0-1.33,0.17-2.006,0.188
																c-0.675-0.018-1.288-0.188-2.005-0.188c-0.312-0.005-0.624,0.007-0.932,0c-0.717,0-1.327,0.17-2.002,0.188
																c-0.675-0.018-1.285-0.188-2.002-0.188c-0.312-0.005-0.621,0.007-0.928,0c-0.718,0-1.331,0.17-2.006,0.188
																c-0.675-0.018-1.288-0.188-2.005-0.188C490.31,302.815,489.998,302.827,489.69,302.82L489.69,302.82z"/>
														</g>
													</g>
													
														<linearGradient id="SVGID_5_" gradientUnits="userSpaceOnUse" x1="496.9846" y1="321.8398" x2="535.9131" y2="321.8398" gradientTransform="matrix(1 0 0 -1 -8.3599 624.0547)">
														<stop  offset="0" style="stop-color:#002255"/>
														<stop  offset="0.5" style="stop-color:#0044AA"/>
														<stop  offset="1" style="stop-color:#002255"/>
													</linearGradient>
													<path fill="url(#SVGID_5_)" d="M490.412,301.69l-0.025,0.049h19.228l-0.026-0.049H490.412L490.412,301.69z
														 M490.367,301.776l-0.026,0.05h19.318l-0.026-0.05H490.367z M490.326,301.854l-0.042,0.081h19.433l-0.042-0.081
														H490.326L490.326,301.854z M490.261,301.979l-0.051,0.098h19.582l-0.052-0.098H490.261L490.261,301.979z
														 M490.179,302.136l-0.051,0.099h19.745l-0.052-0.099H490.179L490.179,302.136z M490.098,302.293l-0.051,0.098h19.907
														l-0.051-0.098H490.098L490.098,302.293z M490.016,302.449l-0.051,0.098h20.072l-0.052-0.098H490.016z M489.928,302.618
														l-0.063,0.12h20.27l-0.062-0.12H489.928L489.928,302.618z"/>
													
														<linearGradient id="SVGID_6_" gradientUnits="userSpaceOnUse" x1="496.9846" y1="321.2363" x2="535.9153" y2="321.2363" gradientTransform="matrix(1 0 0 -1 -8.3599 624.0547)">
														<stop  offset="0" style="stop-color:#002255"/>
														<stop  offset="0.5" style="stop-color:#0044AA"/>
														<stop  offset="1" style="stop-color:#002255"/>
													</linearGradient>
													<path fill="url(#SVGID_6_)" d="M491.259,302.785c0.707,0.15,0.775,0,0.775,0H491.259z M507.966,302.785
														c0,0,0.068,0.15,0.775,0H507.966z"/>
												</g>
												<g id="mountains">
													<g id="mountain1">
														
															<linearGradient id="SVGID_7_" gradientUnits="userSpaceOnUse" x1="514.1975" y1="321.4014" x2="514.1975" y2="320.0553" gradientTransform="matrix(1 0 0 -1 -8.3599 624.0547)">
															<stop  offset="0" style="stop-color:#F5F549"/>
															<stop  offset="1" style="stop-color:#97C924"/>
														</linearGradient>
														<path fill="url(#SVGID_7_)" d="M506.28,299.33c-0.351,0-0.458,0.196-0.458,0.196c-0.561,2.396-2.42,4.835-4.633,4.835
															h-1.656v2.441c0,0,0.002,0,0.003,0h12.607l-1.269-2.483c-1.99-0.328-3.616-2.577-4.134-4.793
															C506.74,299.525,506.63,299.33,506.28,299.33L506.28,299.33z"/>
														<path fill="#97C924" d="M506.28,299.425c-0.161,0-0.259,0.041-0.315,0.081c-0.054,0.038-0.064,0.063-0.065,0.065
															c0,0.002-0.004,0.002-0.004,0.004c-0.287,1.207-0.893,2.418-1.708,3.333c-0.823,0.923-1.859,1.548-2.994,1.548h-1.574
															v2.249h12.475l-1.164-2.279c-0.961-0.139-1.84-0.717-2.554-1.518c-0.817-0.915-1.421-2.127-1.709-3.333
															c0,0-0.003-0.003-0.003-0.004c-0.002-0.002-0.015-0.023-0.069-0.061C506.536,299.47,506.441,299.425,506.28,299.425
															L506.28,299.425z"/>
														<path fill="#EDE71F" d="M506.28,299.425c0.03,0,0.057,0.005,0.083,0.008c0.005,0.684,0,1.838,0,2.449
															c-0.006,0.53-0.17,0.957-0.412,1.46c-0.112,0.352-0.202,0.218-0.482,0.647c-0.375,0.147-0.653,0.206-1.053,0.275
															c-0.517,0.09-1.665,0.17-2.232,0.03c0.747-0.241,1.428-0.741,2.004-1.387c0.152-0.172,0.299-0.354,0.437-0.544
															c0.229-0.317,0.436-0.66,0.616-1.016c0.072-0.142,0.141-0.283,0.205-0.429c0.096-0.219,0.181-0.442,0.256-0.667
															c0.025-0.075,0.051-0.151,0.073-0.226c0.046-0.15,0.085-0.301,0.121-0.452c0-0.001,0.003-0.002,0.004-0.004
															c0.001-0.002,0.012-0.027,0.065-0.065c0.027-0.02,0.067-0.039,0.118-0.054c0.001,0,0.002,0,0.003,0
															C506.137,299.437,506.199,299.425,506.28,299.425L506.28,299.425z"/>
														<path fill="#C6CB24" d="M506.137,299.751c-0.084,1.368-0.467,2.99-1.361,4.037c-0.33,0.303-0.751,0.578-1.157,0.511
															C505.006,303.05,505.85,301.138,506.137,299.751z"/>
														<path fill="#9ECB34" d="M505.022,302.104c-0.206,0.617-0.981,1.529-1.813,2.277c-0.236,0.008-0.36,0.022-0.575,0.009
															C503.14,304.338,504.32,303.237,505.022,302.104L505.022,302.104z"/>
													</g>
													<g>
														<g id="mountain1_1_">
															
																<linearGradient id="SVGID_8_" gradientUnits="userSpaceOnUse" x1="526.3928" y1="321.4014" x2="526.3928" y2="320.0553" gradientTransform="matrix(1 0 0 -1 -23.7007 624.0547)">
																<stop  offset="0" style="stop-color:#F5F549"/>
																<stop  offset="1" style="stop-color:#97C924"/>
															</linearGradient>
															<path fill="url(#SVGID_8_)" d="M503.135,299.33c-0.351,0-0.458,0.196-0.458,0.196
																c-0.561,2.396-2.42,4.835-4.633,4.835h-1.656v2.441c0,0,0.002,0,0.004,0h12.607l-1.269-2.483
																c-1.99-0.328-3.616-2.577-4.134-4.793C503.596,299.525,503.485,299.33,503.135,299.33L503.135,299.33z"/>
															<path fill="#97C924" d="M503.135,299.425c-0.161,0-0.259,0.041-0.315,0.081c-0.055,0.038-0.064,0.063-0.066,0.065
																c0,0.002-0.003,0.002-0.003,0.004c-0.287,1.207-0.893,2.418-1.709,3.333c-0.822,0.923-1.859,1.548-2.994,1.548
																h-1.573v2.249h12.475l-1.164-2.279c-0.961-0.139-1.84-0.717-2.555-1.518c-0.816-0.915-1.421-2.127-1.708-3.333
																c0,0-0.004-0.003-0.004-0.004c-0.001-0.002-0.014-0.023-0.068-0.061C503.392,299.47,503.295,299.425,503.135,299.425
																L503.135,299.425z"/>
															<path fill="#EDE71F" d="M503.134,299.425c0.03,0,0.058,0.005,0.084,0.008c0.005,0.684,0,1.838,0,2.449
																c-0.006,0.53-0.171,0.957-0.413,1.46c-0.112,0.352-0.202,0.218-0.481,0.647c-0.375,0.147-0.653,0.206-1.053,0.275
																c-0.517,0.09-1.666,0.17-2.232,0.03c0.747-0.241,1.427-0.741,2.003-1.387c0.153-0.172,0.3-0.354,0.437-0.544
																c0.229-0.317,0.437-0.66,0.617-1.016c0.072-0.142,0.141-0.283,0.204-0.429c0.096-0.219,0.182-0.442,0.257-0.667
																c0.025-0.075,0.05-0.151,0.072-0.226c0.046-0.15,0.086-0.301,0.122-0.452c0-0.001,0.003-0.002,0.003-0.004
																c0.002-0.002,0.012-0.027,0.066-0.065c0.027-0.02,0.067-0.039,0.117-0.054c0.001,0,0.003,0,0.004,0
																C502.992,299.437,503.054,299.425,503.134,299.425L503.134,299.425z"/>
															<path fill="#C6CB24" d="M502.992,299.751c-0.084,1.368-0.467,2.99-1.362,4.037c-0.329,0.303-0.75,0.578-1.157,0.511
																C501.861,303.05,502.704,301.138,502.992,299.751z"/>
															<path fill="#9ECB34" d="M501.876,302.104c-0.205,0.617-0.981,1.529-1.812,2.277
																c-0.236,0.008-0.361,0.022-0.575,0.009C499.995,304.338,501.175,303.237,501.876,302.104L501.876,302.104z"/>
														</g>
													</g>
													<g id="mountain3">
														
															<linearGradient id="SVGID_9_" gradientUnits="userSpaceOnUse" x1="508.3547" y1="321.4004" x2="508.3547" y2="320.0544" gradientTransform="matrix(1 0 0 -1 -8.3599 624.0547)">
															<stop  offset="0" style="stop-color:#F5F549"/>
															<stop  offset="1" style="stop-color:#97C924"/>
														</linearGradient>
														<path fill="url(#SVGID_9_)" d="M500.455,299.526c0.561,2.397,2.417,4.836,4.629,4.836h1.658v2.44
															c0,0.001-0.003,0-0.003,0h-13.488c-0.001,0-0.003,0.001-0.003,0v-2.44h1.654c2.213,0,4.072-2.438,4.633-4.836
															c0,0,0.109-0.196,0.46-0.196C500.345,299.33,500.455,299.526,500.455,299.526L500.455,299.526z"/>
														<path fill="#97C924" d="M499.995,299.425c0.161,0,0.257,0.044,0.315,0.084c0.055,0.038,0.068,0.059,0.069,0.061
															l0.003,0.004c0.287,1.207,0.892,2.418,1.709,3.333c0.823,0.923,1.862,1.548,2.997,1.548h1.566v2.249h-13.321v-2.249
															h1.573c1.135,0,2.171-0.625,2.994-1.548c0.816-0.915,1.421-2.127,1.708-3.333c0.001-0.001,0.003-0.002,0.004-0.004
															c0.001-0.002,0.012-0.027,0.065-0.065C499.737,299.466,499.834,299.425,499.995,299.425L499.995,299.425z"/>
														<path fill="#EDE71F" d="M499.849,299.44c-0.018,0.003-0.034,0.007-0.049,0.012c-0.001,0-0.003,0-0.004,0
															c-0.05,0.015-0.089,0.034-0.117,0.053c-0.054,0.038-0.064,0.063-0.065,0.065c-0.001,0.001-0.003,0.002-0.004,0.004
															c-0.036,0.151-0.076,0.302-0.122,0.453c-0.022,0.075-0.048,0.15-0.073,0.226c-0.076,0.225-0.161,0.448-0.256,0.667
															c-0.063,0.146-0.132,0.287-0.205,0.43c-0.181,0.354-0.388,0.697-0.617,1.015c-0.138,0.19-0.284,0.373-0.437,0.544
															c-0.576,0.646-1.256,1.145-2.002,1.387c0.567,0.14,0.827-0.013,1.342-0.103c0.4-0.07,0.863-0.128,1.239-0.276
															c0.28-0.429,0.185-0.294,0.297-0.646c0.242-0.503,0.596-0.957,0.683-1.515
															C499.791,301.07,499.849,299.803,499.849,299.44L499.849,299.44z"/>
														<path fill="#C6CB24" d="M499.851,299.751c-0.084,1.368-0.466,2.99-1.362,4.037c-0.329,0.303-0.75,0.578-1.157,0.511
															C498.72,303.05,499.564,301.138,499.851,299.751L499.851,299.751z"/>
														<path fill="#9ECB34" d="M498.736,302.104c-0.206,0.617-0.981,1.529-1.812,2.277c-0.236,0.008-0.361,0.022-0.575,0.008
															C496.855,304.338,498.034,303.237,498.736,302.104L498.736,302.104z"/>
														<path fill="#EDE71F" d="M500.195,299.452c0.001,0,0.002,0,0.003,0c0.05,0.015,0.09,0.035,0.118,0.054
															c0.054,0.038,0.064,0.062,0.065,0.065c0,0.001,0.003,0.002,0.003,0.004c0.036,0.151,0.076,0.302,0.122,0.453
															c0.022,0.075,0.048,0.15,0.072,0.226c0.076,0.224,0.161,0.448,0.257,0.667c0.063,0.146,0.132,0.287,0.204,0.429
															c0.181,0.355,0.388,0.698,0.617,1.016c0.138,0.19,0.283,0.373,0.437,0.544c0.576,0.646,1.256,1.234,2.003,1.477
															c-1.485,0.006-2.13-0.144-2.67-0.911s-0.739-1.103-0.849-1.571C500.469,301.433,500.163,300.413,500.195,299.452
															L500.195,299.452z"/>
														<path fill="#C6CB24" d="M500.303,299.751c0.084,1.368,0.455,2.722,1.35,3.769c0.33,0.303,0.751,0.578,1.158,0.511
															C501.307,302.896,500.591,301.138,500.303,299.751z"/>
													</g>
													<g id="mountain4">
														
															<linearGradient id="SVGID_10_" gradientUnits="userSpaceOnUse" x1="504.4084" y1="321.4004" x2="504.4084" y2="320.0543" gradientTransform="matrix(1 0 0 -1 -8.3599 624.0547)">
															<stop  offset="0" style="stop-color:#F5F549"/>
															<stop  offset="1" style="stop-color:#97C924"/>
														</linearGradient>
														<path fill="url(#SVGID_10_)" d="M496.874,299.33c-0.351,0-0.461,0.196-0.461,0.196
															c-0.517,2.209-2.424,5.059-4.407,5.397l-0.982,1.879h10.048v-2.572c-1.81-0.538-3.258-2.637-3.741-4.704
															C497.331,299.525,497.224,299.33,496.874,299.33L496.874,299.33z"/>
														<path fill="#97C924" d="M496.874,299.425c-0.161,0-0.257,0.044-0.315,0.084c-0.055,0.038-0.068,0.059-0.069,0.061
															l-0.003,0.004c-0.288,1.207-0.959,2.426-1.656,3.398c-0.698,0.971-1.993,1.953-2.879,2.057l-0.878,1.677h9.853v-2.425
															c-0.729-0.247-1.394-0.74-1.958-1.373c-0.816-0.915-1.421-2.127-1.708-3.333c0-0.001-0.003-0.002-0.003-0.004
															c-0.001-0.002-0.012-0.027-0.066-0.065C497.132,299.466,497.034,299.425,496.874,299.425L496.874,299.425z"/>
														<path fill="#93BC30" d="M496.606,299.751c-0.126,2.049-1.159,4.636-2.325,5.082c-0.38,0.146-1.045,0.196-1.276,0.229
															C495.045,303.989,496.25,301.468,496.606,299.751L496.606,299.751z"/>
														<path fill="#EDE71F" d="M496.873,299.425c-0.03,0-0.057,0.005-0.083,0.008c-0.005,0.684,0,1.838,0,2.449
															c0.006,0.53,0.17,0.957,0.413,1.46c0.014,0.044,0.028,0.08,0.042,0.11c0.084,0.246,0.146,0.332,0.468,0.602
															c1.022,0.858,2.29,0.987,3.036,0.916c-0.233-0.203-0.483-0.389-0.704-0.56c0.351-0.013,0.687-0.056,0.925-0.115
															c-0.746-0.241-1.427-0.74-2.003-1.387c-0.1-0.112-0.193-0.231-0.288-0.353c-0.042-0.065-0.103-0.158-0.121-0.184
															c-0.229-0.317-0.464-0.668-0.645-1.023c-0.072-0.142-0.141-0.283-0.205-0.429c-0.096-0.219-0.181-0.442-0.256-0.667
															c-0.025-0.075-0.05-0.151-0.073-0.226c-0.045-0.15-0.085-0.301-0.121-0.452c0-0.001-0.003-0.002-0.003-0.004
															c-0.001-0.002-0.012-0.027-0.066-0.065c-0.028-0.02-0.068-0.039-0.118-0.054c-0.001,0-0.002,0-0.003,0
															C497.015,299.437,496.953,299.425,496.873,299.425L496.873,299.425z"/>
														<path fill="#CCD11E" d="M497.016,299.751c0.084,1.368,0.467,2.99,1.362,4.037c0.329,0.303,0.75,0.578,1.157,0.511
															C498.148,303.05,497.304,301.138,497.016,299.751L497.016,299.751z"/>
														<path fill="#9ECB34" d="M497.871,301.643c0.486,1.323,1.716,2.559,2.981,3.39c0.236,0.008,0.307,0,0.521-0.014
															C500.466,304.481,499.007,303.714,497.871,301.643L497.871,301.643z"/>
													</g>
													<g>
														<g id="mountain4_1_">
															
																<linearGradient id="SVGID_11_" gradientUnits="userSpaceOnUse" x1="516.6741" y1="321.4004" x2="516.6741" y2="320.0543" gradientTransform="matrix(1 0 0 -1 -23.7896 624.0547)">
																<stop  offset="0" style="stop-color:#F5F549"/>
																<stop  offset="1" style="stop-color:#97C924"/>
															</linearGradient>
															<path fill="url(#SVGID_11_)" d="M493.711,299.33c-0.351,0-0.461,0.196-0.461,0.196
																c-0.517,2.209-2.424,5.059-4.407,5.397l-0.982,1.879h10.048v-2.572c-1.809-0.538-3.257-2.637-3.741-4.704
																C494.168,299.525,494.061,299.33,493.711,299.33L493.711,299.33z"/>
															<path fill="#97C924" d="M493.711,299.425c-0.161,0-0.257,0.044-0.315,0.084c-0.055,0.038-0.068,0.059-0.069,0.061
																l-0.003,0.004c-0.288,1.207-0.959,2.426-1.656,3.398c-0.698,0.971-1.993,1.953-2.879,2.057l-0.878,1.677h9.853
																v-2.425c-0.729-0.247-1.394-0.74-1.958-1.373c-0.816-0.915-1.421-2.127-1.708-3.333c0-0.001-0.003-0.002-0.003-0.004
																c-0.001-0.002-0.012-0.027-0.066-0.065C493.969,299.466,493.871,299.425,493.711,299.425L493.711,299.425z"/>
															<path fill="#93BC30" d="M493.443,299.751c-0.126,2.049-1.159,4.636-2.325,5.082c-0.38,0.146-1.045,0.196-1.276,0.229
																C491.882,303.989,493.087,301.468,493.443,299.751L493.443,299.751z"/>
															<path fill="#EDE71F" d="M493.71,299.425c-0.03,0-0.057,0.005-0.083,0.008c-0.005,0.684,0,1.838,0,2.449
																c0.006,0.53,0.17,0.957,0.413,1.46c0.014,0.044,0.028,0.08,0.042,0.11c0.084,0.246,0.146,0.332,0.468,0.602
																c1.022,0.858,2.29,0.987,3.036,0.916c-0.233-0.203-0.483-0.389-0.704-0.56c0.351-0.013,0.687-0.056,0.925-0.115
																c-0.746-0.241-1.427-0.74-2.003-1.387c-0.1-0.112-0.193-0.231-0.288-0.353c-0.042-0.065-0.103-0.158-0.121-0.184
																c-0.229-0.317-0.464-0.668-0.645-1.023c-0.072-0.142-0.141-0.283-0.205-0.429c-0.096-0.219-0.181-0.442-0.256-0.667
																c-0.025-0.075-0.05-0.151-0.073-0.226c-0.046-0.15-0.085-0.301-0.122-0.452c0-0.001-0.003-0.002-0.003-0.004
																c-0.001-0.002-0.012-0.027-0.066-0.065c-0.028-0.02-0.068-0.039-0.118-0.054c-0.001,0-0.002,0-0.003,0
																C493.852,299.437,493.79,299.425,493.71,299.425L493.71,299.425z"/>
															<path fill="#C6CB24" d="M493.853,299.751c0.084,1.368,0.467,2.99,1.362,4.037c0.329,0.303,0.75,0.578,1.157,0.511
																C494.985,303.05,494.141,301.138,493.853,299.751L493.853,299.751z"/>
															<path fill="#9ECB34" d="M494.708,301.643c0.486,1.323,1.716,2.559,2.981,3.39c0.236,0.008,0.306,0,0.52-0.014
																C497.303,304.481,495.844,303.714,494.708,301.643L494.708,301.643z"/>
														</g>
													</g>
												</g>
												<g>
													<path fill="#FFFFFF" d="M511.582,305.597c-0.117,0.046-0.906-0.043-1.318-0.01l-0.263,0.076
														c-0.229-0.002-0.458,0.005-0.683,0c-0.738,0-1.363,0.215-2.065,0.215c-0.703,0-1.326-0.215-2.065-0.215
														c-0.229-0.002-0.458,0.005-0.683,0c-0.738,0-1.362,0.215-2.065,0.215s-1.327-0.215-2.065-0.215
														c-0.231-0.002-0.459,0.005-0.686,0c-0.739,0-1.36,0.215-2.062,0.215c-0.703,0-1.323-0.215-2.062-0.215
														c-0.055,0-0.106,0.002-0.159,0.004c-0.037-0.001-0.078-0.004-0.114-0.004c-0.025,0-0.046-0.001-0.07,0
														c-0.024-0.001-0.048,0-0.073,0c-0.037,0-0.071,0.003-0.107,0.004c-0.053-0.002-0.105-0.004-0.16-0.004
														c-0.739,0-1.362,0.215-2.065,0.215c-0.703,0-1.327-0.215-2.065-0.215c-0.054,0-0.107,0.002-0.159,0.004
														c-0.037-0.001-0.069-0.004-0.107-0.004c-0.025,0-0.052-0.001-0.077,0c-0.024-0.001-0.048,0-0.073,0
														c-0.037,0-0.074,0.003-0.11,0.004c-0.053-0.002-0.104-0.004-0.159-0.004c-0.59,0-1.275,0.138-1.832,0.192l-1.286,2.461
														l12.909-0.001l13.196,0.001L511.582,305.597z"/>
													
														<linearGradient id="SVGID_12_" gradientUnits="userSpaceOnUse" x1="201.2346" y1="706.9521" x2="201.4397" y2="706.9521" gradientTransform="matrix(116.1978 0 0 -5.849 -22895.1484 4440.8677)">
														<stop  offset="0" style="stop-color:#002255"/>
														<stop  offset="0.5" style="stop-color:#0044AA"/>
														<stop  offset="1" style="stop-color:#002255"/>
													</linearGradient>
													<path fill="url(#SVGID_12_)" d="M509.839,305.238c-0.041,0-0.082,0-0.123,0.002c-0.664,0.021-1.141,0.253-2.296,0.253
														s-1.274-0.231-2.579-0.199c-1.22,0.029-1.731,0.285-2.393,0.275c-0.662-0.01-1.737-0.158-2.564-0.063
														c-0.828,0.096-1.81,0.291-2.455,0.293c-0.801-0.004-1.603-0.166-2.441-0.073c-0.837,0.092-1.229,0.34-2.268,0.336
														c-0.893-0.003-1.862-0.157-2.613-0.157c-0.704,0.001-1.49,0.217-2.067,0.327l-0.173,0.332
														c0.46-0.06,1.753-0.276,2.214-0.289c0.48-0.015,2.197,0.109,3.144,0.073s1.058-0.266,2.177-0.266
														c0.779,0,1.366,0.09,2.166,0.09c0.499,0,0.952-0.281,1.71-0.281c0.192-0.006,0.382-0.014,0.573-0.021
														c0.639-0.117,1.718,0.011,2.47,0.053c0.68,0.039,1.118-0.14,1.827-0.165c0.307-0.016,0.614-0.016,0.917-0.034
														c0.709-0.026,1.316,0.146,1.984,0.142c0.666-0.046,1.313-0.209,2.021-0.235c0.31-0.016,0.614-0.016,0.921-0.033
														c0.468-0.018,1.196,0.018,1.695,0.113l-0.172-0.328C511.028,305.365,510.427,305.238,509.839,305.238L509.839,305.238z
														"/>
													<g id="wavesf3">
														
															<linearGradient id="wavef1_9_" gradientUnits="userSpaceOnUse" x1="201.3665" y1="674.6816" x2="201.5715" y2="674.6816" gradientTransform="matrix(126.7259 0 0 -1.5223 -25031.2793 1335.1219)">
															<stop  offset="0" style="stop-color:#002255"/>
															<stop  offset="0.5" style="stop-color:#0044AA"/>
															<stop  offset="1" style="stop-color:#002255"/>
														</linearGradient>
														<path id="wavef1" fill="url(#wavef1_9_)" d="M489.814,307.876c-0.709,0-1.313,0.193-1.979,0.215
															c-0.248-0.008-0.485-0.042-0.724-0.079l-0.101,0.193c0.1,0.007,0.2,0.015,0.306,0.015
															c0.308,0.004,0.613-0.009,0.917,0c0.708,0,1.308-0.194,1.975-0.215c0.667,0.021,1.272,0.215,1.982,0.215
															c0.308,0.004,0.613-0.009,0.917,0c0.709,0,1.314-0.194,1.981-0.215c0.667,0.021,1.277,0.215,1.986,0.215
															c0.307,0.004,0.614-0.009,0.917,0c0.709,0,1.312-0.194,1.979-0.215c0.667,0.021,1.269,0.215,1.978,0.215
															c0.311,0.004,0.615-0.009,0.921,0c0.709,0,1.313-0.194,1.981-0.215c0.668,0.021,1.272,0.215,1.982,0.215
															c0.307,0.004,0.613-0.009,0.916,0c0.709,0,1.313-0.194,1.979-0.215c0.667,0.021,1.272,0.215,1.981,0.215
															c0.308,0.004,0.614-0.009,0.917,0c0.124,0,0.245-0.009,0.365-0.019l-0.095-0.181c-0.219,0.033-0.438,0.063-0.664,0.07
															c-0.667-0.021-1.27-0.215-1.979-0.215c-0.31-0.004-0.614,0.007-0.921,0c-0.708,0-1.311,0.193-1.978,0.215
															c-0.668-0.021-1.272-0.215-1.981-0.215c-0.307-0.004-0.613,0.007-0.917,0c-0.709,0-1.314,0.193-1.981,0.215
															c-0.667-0.021-1.273-0.215-1.982-0.215c-0.308-0.004-0.615,0.007-0.92,0c-0.709,0-1.312,0.193-1.978,0.215
															c-0.667-0.021-1.27-0.215-1.979-0.215c-0.309-0.004-0.613,0.007-0.917,0c-0.709,0-1.314,0.193-1.981,0.215
															c-0.667-0.021-1.273-0.215-1.982-0.215C490.427,307.872,490.118,307.883,489.814,307.876L489.814,307.876z"/>
														<g>
															
																<linearGradient id="wavef1_10_" gradientUnits="userSpaceOnUse" x1="201.3665" y1="674.0254" x2="201.5715" y2="674.0254" gradientTransform="matrix(126.7259 0 0 -1.5223 -25031.2793 1333.8309)">
																<stop  offset="0" style="stop-color:#002255"/>
																<stop  offset="0.5" style="stop-color:#0044AA"/>
																<stop  offset="1" style="stop-color:#002255"/>
															</linearGradient>
															<path id="wavef1_1_" fill="url(#wavef1_10_)" d="M489.814,307.584c-0.709,0-1.313,0.193-1.979,0.214
																c-0.248-0.007-0.485-0.041-0.724-0.078l-0.101,0.192c0.1,0.008,0.2,0.015,0.306,0.015
																c0.308,0.004,0.613-0.008,0.917,0c0.708,0,1.308-0.193,1.975-0.214c0.667,0.021,1.272,0.214,1.982,0.214
																c0.308,0.004,0.613-0.008,0.917,0c0.709,0,1.314-0.193,1.981-0.214c0.667,0.021,1.277,0.214,1.986,0.214
																c0.307,0.004,0.614-0.008,0.917,0c0.709,0,1.312-0.193,1.979-0.214c0.667,0.021,1.269,0.214,1.978,0.214
																c0.311,0.004,0.615-0.008,0.921,0c0.709,0,1.313-0.193,1.981-0.214c0.668,0.021,1.272,0.214,1.982,0.214
																c0.307,0.004,0.613-0.008,0.916,0c0.709,0,1.313-0.193,1.979-0.214c0.667,0.021,1.272,0.214,1.981,0.214
																c0.308,0.004,0.614-0.008,0.917,0c0.124,0,0.245-0.008,0.365-0.018l-0.095-0.181
																c-0.219,0.033-0.438,0.063-0.664,0.069c-0.667-0.021-1.27-0.214-1.979-0.214c-0.31-0.004-0.614,0.007-0.921,0
																c-0.708,0-1.311,0.193-1.978,0.214c-0.668-0.021-1.272-0.214-1.981-0.214c-0.307-0.005-0.613,0.007-0.917,0
																c-0.709,0-1.314,0.193-1.981,0.214c-0.667-0.021-1.273-0.214-1.982-0.214c-0.308-0.004-0.615,0.007-0.92,0
																c-0.709,0-1.312,0.193-1.978,0.214c-0.667-0.021-1.27-0.214-1.979-0.214c-0.309-0.005-0.613,0.007-0.917,0
																c-0.709,0-1.314,0.193-1.981,0.214c-0.667-0.021-1.273-0.214-1.982-0.214
																C490.427,307.579,490.118,307.591,489.814,307.584L489.814,307.584z"/>
														</g>
														<g>
															
																<linearGradient id="wavef1_11_" gradientUnits="userSpaceOnUse" x1="201.3665" y1="673.373" x2="201.5715" y2="673.373" gradientTransform="matrix(126.7259 0 0 -1.5223 -25031.2793 1332.5458)">
																<stop  offset="0" style="stop-color:#002255"/>
																<stop  offset="0.5" style="stop-color:#0044AA"/>
																<stop  offset="1" style="stop-color:#002255"/>
															</linearGradient>
															<path id="wavef1_2_" fill="url(#wavef1_11_)" d="M489.814,307.293c-0.709,0-1.313,0.193-1.979,0.214
																c-0.248-0.008-0.485-0.041-0.724-0.078l-0.101,0.192c0.1,0.008,0.2,0.015,0.306,0.015
																c0.308,0.004,0.613-0.009,0.917,0c0.708,0,1.308-0.193,1.975-0.215c0.667,0.021,1.272,0.215,1.982,0.215
																c0.308,0.004,0.613-0.009,0.917,0c0.709,0,1.314-0.193,1.981-0.215c0.667,0.021,1.277,0.215,1.986,0.215
																c0.307,0.004,0.614-0.009,0.917,0c0.709,0,1.312-0.193,1.979-0.215c0.667,0.021,1.269,0.215,1.978,0.215
																c0.311,0.004,0.615-0.009,0.921,0c0.709,0,1.313-0.193,1.981-0.215c0.668,0.021,1.272,0.215,1.982,0.215
																c0.307,0.004,0.613-0.009,0.916,0c0.709,0,1.313-0.193,1.979-0.215c0.667,0.021,1.272,0.215,1.981,0.215
																c0.308,0.004,0.614-0.009,0.917,0c0.124,0,0.245-0.008,0.365-0.018l-0.095-0.181
																c-0.219,0.032-0.438,0.063-0.664,0.069c-0.667-0.021-1.27-0.214-1.979-0.214c-0.31-0.005-0.614,0.007-0.921,0
																c-0.708,0-1.311,0.193-1.978,0.214c-0.668-0.021-1.272-0.214-1.981-0.214c-0.307-0.005-0.613,0.007-0.917,0
																c-0.709,0-1.314,0.193-1.981,0.214c-0.667-0.021-1.273-0.214-1.982-0.214c-0.308-0.005-0.615,0.007-0.92,0
																c-0.709,0-1.312,0.193-1.978,0.214c-0.667-0.021-1.27-0.214-1.979-0.214c-0.309-0.005-0.613,0.007-0.917,0
																c-0.709,0-1.314,0.193-1.981,0.214c-0.667-0.021-1.273-0.214-1.982-0.214
																C490.427,307.288,490.118,307.3,489.814,307.293L489.814,307.293z"/>
														</g>
													</g>
													<g>
														<g id="wavesf3_1_">
															
																<linearGradient id="wavef1_12_" gradientUnits="userSpaceOnUse" x1="201.3665" y1="672.7168" x2="201.5715" y2="672.7168" gradientTransform="matrix(126.7259 0 0 -1.5223 -25031.2793 1331.2548)">
																<stop  offset="0" style="stop-color:#002255"/>
																<stop  offset="0.5" style="stop-color:#0044AA"/>
																<stop  offset="1" style="stop-color:#002255"/>
															</linearGradient>
															<path id="wavef1_3_" fill="url(#wavef1_12_)" d="M489.814,307c-0.709,0-1.313,0.193-1.979,0.214
																c-0.248-0.008-0.485-0.042-0.724-0.078l-0.101,0.192c0.1,0.008,0.2,0.015,0.306,0.015
																c0.308,0.004,0.613-0.009,0.917,0c0.708,0,1.308-0.193,1.975-0.214c0.667,0.021,1.272,0.214,1.982,0.214
																c0.308,0.004,0.613-0.009,0.917,0c0.709,0,1.314-0.193,1.981-0.214c0.667,0.021,1.277,0.214,1.986,0.214
																c0.307,0.004,0.614-0.009,0.917,0c0.709,0,1.312-0.193,1.979-0.214c0.667,0.021,1.269,0.214,1.978,0.214
																c0.311,0.004,0.615-0.009,0.921,0c0.709,0,1.313-0.193,1.981-0.214c0.668,0.021,1.272,0.214,1.982,0.214
																c0.307,0.004,0.613-0.009,0.916,0c0.709,0,1.313-0.193,1.979-0.214c0.667,0.021,1.272,0.214,1.981,0.214
																c0.308,0.004,0.614-0.009,0.917,0c0.124,0,0.245-0.008,0.365-0.018l-0.095-0.181
																c-0.219,0.032-0.438,0.063-0.664,0.069c-0.667-0.021-1.27-0.214-1.979-0.214c-0.31-0.005-0.614,0.006-0.921,0
																c-0.708,0-1.311,0.193-1.978,0.214c-0.668-0.021-1.272-0.214-1.981-0.214c-0.307-0.005-0.613,0.006-0.917,0
																c-0.709,0-1.314,0.193-1.981,0.214c-0.667-0.021-1.273-0.214-1.982-0.214c-0.308-0.005-0.615,0.006-0.92,0
																c-0.709,0-1.312,0.193-1.978,0.214c-0.667-0.021-1.27-0.214-1.979-0.214c-0.309-0.005-0.613,0.006-0.917,0
																c-0.709,0-1.314,0.193-1.981,0.214c-0.667-0.021-1.273-0.214-1.982-0.214
																C490.427,306.995,490.118,307.006,489.814,307L489.814,307z"/>
															<g>
																
																	<linearGradient id="wavef1_13_" gradientUnits="userSpaceOnUse" x1="201.3665" y1="672.0605" x2="201.5715" y2="672.0605" gradientTransform="matrix(126.7259 0 0 -1.5223 -25031.2793 1329.9637)">
																	<stop  offset="0" style="stop-color:#002255"/>
																	<stop  offset="0.5" style="stop-color:#0044AA"/>
																	<stop  offset="1" style="stop-color:#002255"/>
																</linearGradient>
																<path id="wavef1_4_" fill="url(#wavef1_13_)" d="M489.814,306.707c-0.709,0-1.313,0.193-1.979,0.215
																	c-0.248-0.008-0.485-0.042-0.724-0.078l-0.101,0.192c0.1,0.008,0.2,0.015,0.306,0.015
																	c0.308,0.004,0.613-0.009,0.917,0c0.708,0,1.308-0.193,1.975-0.215c0.667,0.021,1.272,0.215,1.982,0.215
																	c0.308,0.004,0.613-0.009,0.917,0c0.709,0,1.314-0.193,1.981-0.215c0.667,0.021,1.277,0.215,1.986,0.215
																	c0.307,0.004,0.614-0.009,0.917,0c0.709,0,1.312-0.193,1.979-0.215c0.667,0.021,1.269,0.215,1.978,0.215
																	c0.311,0.004,0.615-0.009,0.921,0c0.709,0,1.313-0.193,1.981-0.215c0.668,0.021,1.272,0.215,1.982,0.215
																	c0.307,0.004,0.613-0.009,0.916,0c0.709,0,1.313-0.193,1.979-0.215c0.667,0.021,1.272,0.215,1.981,0.215
																	c0.308,0.004,0.614-0.009,0.917,0c0.124,0,0.245-0.008,0.365-0.018l-0.095-0.181
																	c-0.219,0.032-0.438,0.063-0.664,0.069c-0.667-0.021-1.27-0.215-1.979-0.215c-0.31-0.004-0.614,0.007-0.921,0
																	c-0.708,0-1.311,0.193-1.978,0.215c-0.668-0.021-1.272-0.215-1.981-0.215c-0.307-0.004-0.613,0.007-0.917,0
																	c-0.709,0-1.314,0.193-1.981,0.215c-0.667-0.021-1.273-0.215-1.982-0.215c-0.308-0.004-0.615,0.007-0.92,0
																	c-0.709,0-1.312,0.193-1.978,0.215c-0.667-0.021-1.27-0.215-1.979-0.215c-0.309-0.004-0.613,0.007-0.917,0
																	c-0.709,0-1.314,0.194-1.981,0.215c-0.667-0.021-1.273-0.215-1.982-0.215
																	C490.427,306.703,490.118,306.714,489.814,306.707L489.814,306.707z"/>
															</g>
															<g>
																
																	<linearGradient id="wavef1_14_" gradientUnits="userSpaceOnUse" x1="201.3665" y1="671.4082" x2="201.5715" y2="671.4082" gradientTransform="matrix(126.7259 0 0 -1.5223 -25031.2793 1328.6786)">
																	<stop  offset="0" style="stop-color:#002255"/>
																	<stop  offset="0.5" style="stop-color:#0044AA"/>
																	<stop  offset="1" style="stop-color:#002255"/>
																</linearGradient>
																<path id="wavef1_5_" fill="url(#wavef1_14_)" d="M489.814,306.416c-0.709,0-1.313,0.193-1.979,0.215
																	c-0.248-0.008-0.485-0.042-0.724-0.079l-0.101,0.193c0.1,0.007,0.2,0.014,0.306,0.014
																	c0.308,0.005,0.613-0.008,0.917,0c0.708,0,1.308-0.193,1.975-0.214c0.667,0.021,1.272,0.214,1.982,0.214
																	c0.308,0.005,0.613-0.008,0.917,0c0.709,0,1.314-0.193,1.981-0.214c0.667,0.021,1.277,0.214,1.986,0.214
																	c0.307,0.005,0.614-0.008,0.917,0c0.709,0,1.312-0.193,1.979-0.214c0.667,0.021,1.269,0.214,1.978,0.214
																	c0.311,0.005,0.615-0.008,0.921,0c0.709,0,1.313-0.193,1.981-0.214c0.668,0.021,1.272,0.214,1.982,0.214
																	c0.307,0.005,0.613-0.008,0.916,0c0.709,0,1.313-0.193,1.979-0.214c0.667,0.021,1.272,0.214,1.981,0.214
																	c0.308,0.005,0.614-0.008,0.917,0c0.124,0,0.245-0.008,0.365-0.018l-0.095-0.181
																	c-0.219,0.033-0.438,0.063-0.664,0.07c-0.667-0.021-1.27-0.215-1.979-0.215c-0.31-0.004-0.614,0.007-0.921,0
																	c-0.708,0-1.311,0.193-1.978,0.215c-0.668-0.021-1.272-0.215-1.981-0.215c-0.307-0.005-0.613,0.007-0.917,0
																	c-0.709,0-1.314,0.193-1.981,0.215c-0.667-0.021-1.273-0.215-1.982-0.215c-0.308-0.004-0.615,0.007-0.92,0
																	c-0.709,0-1.312,0.193-1.978,0.215c-0.667-0.021-1.27-0.215-1.979-0.215c-0.309-0.005-0.613,0.007-0.917,0
																	c-0.709,0-1.314,0.193-1.981,0.215c-0.667-0.021-1.273-0.215-1.982-0.215
																	C490.427,306.411,490.118,306.423,489.814,306.416L489.814,306.416z"/>
															</g>
														</g>
														<g id="seaf">
															<g id="wavesf3_2_">
																
																	<linearGradient id="wavef1_15_" gradientUnits="userSpaceOnUse" x1="201.3665" y1="670.7539" x2="201.5715" y2="670.7539" gradientTransform="matrix(126.7259 0 0 -1.5223 -25031.2793 1327.3915)">
																	<stop  offset="0" style="stop-color:#002255"/>
																	<stop  offset="0.5" style="stop-color:#0044AA"/>
																	<stop  offset="1" style="stop-color:#002255"/>
																</linearGradient>
																<path id="wavef1_6_" fill="url(#wavef1_15_)" d="M489.814,306.124c-0.709,0-1.313,0.194-1.979,0.215
																	c-0.248-0.008-0.485-0.042-0.724-0.078l-0.101,0.192c0.1,0.007,0.2,0.015,0.306,0.015
																	c0.308,0.004,0.613-0.009,0.917,0c0.708,0,1.308-0.193,1.975-0.215c0.667,0.021,1.272,0.215,1.982,0.215
																	c0.308,0.004,0.613-0.009,0.917,0c0.709,0,1.314-0.193,1.981-0.215c0.667,0.021,1.277,0.215,1.986,0.215
																	c0.307,0.004,0.614-0.009,0.917,0c0.709,0,1.312-0.193,1.979-0.215c0.667,0.021,1.269,0.215,1.978,0.215
																	c0.311,0.004,0.615-0.009,0.921,0c0.709,0,1.313-0.193,1.981-0.215c0.668,0.021,1.272,0.215,1.982,0.215
																	c0.307,0.004,0.613-0.009,0.916,0c0.709,0,1.313-0.193,1.979-0.215c0.667,0.021,1.272,0.215,1.981,0.215
																	c0.308,0.004,0.614-0.009,0.917,0c0.124,0,0.245-0.008,0.365-0.018l-0.095-0.181
																	c-0.219,0.032-0.438,0.063-0.664,0.069c-0.667-0.021-1.27-0.215-1.979-0.215c-0.31-0.004-0.614,0.007-0.921,0
																	c-0.708,0-1.311,0.194-1.978,0.215c-0.668-0.021-1.272-0.215-1.981-0.215c-0.307-0.004-0.613,0.007-0.917,0
																	c-0.709,0-1.314,0.194-1.981,0.215c-0.667-0.021-1.273-0.215-1.982-0.215c-0.308-0.004-0.615,0.007-0.92,0
																	c-0.709,0-1.312,0.194-1.978,0.215c-0.667-0.021-1.27-0.215-1.979-0.215c-0.309-0.004-0.613,0.007-0.917,0
																	c-0.709,0-1.314,0.194-1.981,0.215c-0.667-0.021-1.273-0.215-1.982-0.215
																	C490.427,306.12,490.118,306.131,489.814,306.124L489.814,306.124z"/>
																<g>
																	
																		<linearGradient id="wavef1_16_" gradientUnits="userSpaceOnUse" x1="201.3665" y1="670.1006" x2="201.5715" y2="670.1006" gradientTransform="matrix(126.7259 0 0 -1.5223 -25031.2793 1326.1024)">
																		<stop  offset="0" style="stop-color:#002255"/>
																		<stop  offset="0.5" style="stop-color:#0044AA"/>
																		<stop  offset="1" style="stop-color:#002255"/>
																	</linearGradient>
																	<path id="wavef1_7_" fill="url(#wavef1_16_)" d="M489.814,305.832c-0.709,0-1.313,0.193-1.979,0.215
																		c-0.248-0.008-0.485-0.042-0.724-0.079l-0.101,0.193c0.1,0.007,0.2,0.014,0.306,0.014
																		c0.308,0.005,0.613-0.008,0.917,0c0.708,0,1.308-0.193,1.975-0.214c0.667,0.021,1.272,0.214,1.982,0.214
																		c0.308,0.005,0.613-0.008,0.917,0c0.709,0,1.314-0.193,1.981-0.214c0.667,0.021,1.277,0.214,1.986,0.214
																		c0.307,0.005,0.614-0.008,0.917,0c0.709,0,1.312-0.193,1.979-0.214c0.667,0.021,1.269,0.214,1.978,0.214
																		c0.311,0.005,0.615-0.008,0.921,0c0.709,0,1.313-0.193,1.981-0.214c0.668,0.021,1.272,0.214,1.982,0.214
																		c0.307,0.005,0.613-0.008,0.916,0c0.709,0,1.313-0.193,1.979-0.214c0.667,0.021,1.272,0.214,1.981,0.214
																		c0.308,0.005,0.614-0.008,0.917,0c0.124,0,0.245-0.008,0.365-0.018l-0.095-0.181
																		c-0.219,0.033-0.438,0.063-0.664,0.07c-0.667-0.021-1.27-0.215-1.979-0.215c-0.31-0.004-0.614,0.007-0.921,0
																		c-0.708,0-1.311,0.193-1.978,0.215c-0.668-0.021-1.272-0.215-1.981-0.215c-0.307-0.005-0.613,0.007-0.917,0
																		c-0.709,0-1.314,0.193-1.981,0.215c-0.667-0.021-1.273-0.215-1.982-0.215c-0.308-0.004-0.615,0.007-0.92,0
																		c-0.709,0-1.312,0.193-1.978,0.215c-0.667-0.021-1.27-0.215-1.979-0.215c-0.309-0.005-0.613,0.007-0.917,0
																		c-0.709,0-1.314,0.193-1.981,0.215c-0.667-0.021-1.273-0.215-1.982-0.215
																		C490.427,305.827,490.118,305.839,489.814,305.832L489.814,305.832z"/>
																</g>
																<g>
																	
																		<linearGradient id="wavef1_17_" gradientUnits="userSpaceOnUse" x1="201.3665" y1="669.4473" x2="201.5715" y2="669.4473" gradientTransform="matrix(126.7259 0 0 -1.5223 -25031.2793 1324.8173)">
																		<stop  offset="0" style="stop-color:#002255"/>
																		<stop  offset="0.5" style="stop-color:#0044AA"/>
																		<stop  offset="1" style="stop-color:#002255"/>
																	</linearGradient>
																	<path id="wavef1_8_" fill="url(#wavef1_17_)" d="M489.814,305.541c-0.709,0-1.313,0.193-1.979,0.214
																		c-0.248-0.008-0.485-0.041-0.724-0.078l-0.101,0.192c0.1,0.008,0.2,0.015,0.306,0.015
																		c0.308,0.004,0.613-0.008,0.917,0c0.708,0,1.308-0.193,1.975-0.214c0.667,0.021,1.272,0.214,1.982,0.214
																		c0.308,0.004,0.613-0.008,0.917,0c0.709,0,1.314-0.193,1.981-0.214c0.667,0.021,1.277,0.214,1.986,0.214
																		c0.307,0.004,0.614-0.008,0.917,0c0.709,0,1.312-0.193,1.979-0.214c0.667,0.021,1.269,0.214,1.978,0.214
																		c0.311,0.004,0.615-0.008,0.921,0c0.709,0,1.313-0.193,1.981-0.214c0.668,0.021,1.272,0.214,1.982,0.214
																		c0.307,0.004,0.613-0.008,0.916,0c0.709,0,1.313-0.193,1.979-0.214c0.667,0.021,1.272,0.214,1.981,0.214
																		c0.308,0.004,0.614-0.008,0.917,0c0.124,0,0.245-0.008,0.365-0.018l-0.095-0.181
																		c-0.219,0.032-0.438,0.063-0.664,0.069c-0.667-0.021-1.27-0.214-1.979-0.214c-0.31-0.005-0.614,0.007-0.921,0
																		c-0.708,0-1.311,0.193-1.978,0.214c-0.668-0.021-1.272-0.214-1.981-0.214c-0.307-0.005-0.613,0.007-0.917,0
																		c-0.709,0-1.314,0.193-1.981,0.214c-0.667-0.021-1.273-0.214-1.982-0.214c-0.308-0.005-0.615,0.007-0.92,0
																		c-0.709,0-1.312,0.193-1.978,0.214c-0.667-0.021-1.27-0.214-1.979-0.214c-0.309-0.005-0.613,0.007-0.917,0
																		c-0.709,0-1.314,0.193-1.981,0.214c-0.667-0.021-1.273-0.214-1.982-0.214
																		C490.427,305.536,490.118,305.548,489.814,305.541L489.814,305.541z"/>
																</g>
															</g>
														</g>
														<path fill="#97C924" d="M488.489,305.6l-0.498,0.95c0.582-0.106,1.456-0.386,2.18-0.387
															c0.751-0.001,1.657,0.205,2.55,0.207c1.039,0.004,1.43-0.244,2.268-0.336c0.838-0.093,1.64,0.119,2.441,0.123
															c0.645-0.001,1.627-0.247,2.455-0.342c0.827-0.097,1.586,0.066,2.584,0.083c0.997,0.017,1.153-0.268,2.373-0.297
															c1.305-0.032,1.424,0.199,2.579,0.199c0.87,0.052,1.616-0.194,2.392-0.255s1.136,0.01,1.702,0.025l-0.376-0.737
															c-0.007,0-0.013,0-0.02,0.001l-20.755,0.504L488.489,305.6z"/>
														<path fill="#FFFFFF" d="M510.264,305.587c0,0,0.556,0.034,0.789,0.063c0.232,0.028,0.605,0.058,0.605,0.058
															l-0.076-0.11C511.465,305.643,510.676,305.554,510.264,305.587z"/>
													</g>
													<path fill="#C8A400" d="M500,282.972l-6.589,12.622l-6.736,12.897l13.181-0.001l13.469,0.001l-6.592-12.621
														L500,282.972L500,282.972z M500,283.652l6.468,12.388l6.324,12.111l-12.936-0.001l-12.649,0.001l6.47-12.387
														L500,283.652z"/>
												</g>
											</g>
										</g>
									</g>
								</g>
							</g>
						</g>
					</g>
				</g>
			</g>
		</g>
	</g>
</g>
</svg>
